<svg xmlns="http://www.w3.org/2000/svg" xml:space="preserve" width="1080" height="1080" viewBox="0 0 285.75 285.75"><path d="m5.567 0 .794.791zM.011 8.702v4.747h5.556c.456 21.895 28.725 20.105 34.13 38.764l-5.556-2.374c5.815 19.498 18.053-10.05 27.78-3.164-11.152 5.766-14.379 17.477-27.78 20.568 2.271-12.192-5.717-21.828-18.255-15.097C6.143 57.376.018 68.338.01 79.11c7.84-2.027 10.771-4.953 15.875-11.076 2.76 7.653 15.508 2.37 22.224 2.374-7.35 9.86-25.253 2.706-27.78 16.613l23.777-7.997L40.8 71.19l10.564-5.674 13.731-13.302c-.205-2-.578-3.694-1.429-5.54-7.014-15.223-14.83-1.6-22.382 3.957-.422-19.724-27.164-20.62-34.13-37.181C14.763 11.693 23.513 7.888 26.204 0L8.742 8.702l9.525-7.91C10.97-2.225 7.765 8.674.01 8.701M27.791 0c1.67 7.193.286 18.177 3.428 24.521 4.11 8.3 12.456 4.97 14.828-2.37l11.906 4.746C59.574 14.108 53.543.97 38.903 0c1.114 7.202-3.036 17.09 5.556 20.569-3.978 4.986-8.829 3.059-11.542-2.374C30.253 12.86 36.238 1.4 27.79 0m29.37 0v.791h15.874zm16.668 0C66.65 6.941 60.457 8.293 59.54 19.777h.794C62.77 14.117 66.11 9.726 72.24 7.911l-7.144 23.733-18.255-.791c3 8.51 11.396.927 17.21 4.768 2.45 1.619 2.46 6.145 3.501 8.68 2.043 4.977 5.449 8.689 10.244 11.076v.791c-10.352 2.456-22.012 1.27-17.462 16.613H72.24c-3.76 3.022-9.345 5.742-14.287 4.048-3.746-1.283-6.795-5.33-11.112-4.464-9.34 1.87-6.391 12.323-12.155 16.096-2.107 1.38-5.3.932-7.688.933-4.402.002-9.517-.666-13.481 1.653-4.711 2.755-7.987 11.727-3.187 15.751-.922-10.49 9.523-11.866 17.461-11.866-3.595 4.695-6.353 11.126-11.906 13.878-4.886 2.42-6.758-1.999-11.108-1.86-5.243.167-4.765 7.433-4.766 10.924h.794c6.02-7.82 8.445-.66 15.874-2.893 5.63-1.692 8.351-7.981 11.906-12.138l1.587 7.91c-9.486 4.474-18.742 10.377-22.224 20.57h.794c5.254-8.235 15.037-13.553 23.018-18.987l13.69 21.36L32.553 151.1c4.227-1.202 16.454-2.372 19.253-5.224 3.94-4.013-.045-11.121-1.019-15.345-1.354-5.876.522-14.238.021-20.568 11.57 2.236 26.88-.132 31.749-12.658-8.422 5.529-33.268 17.576-33.336-1.582h-.794l-.794 6.329-7.143-9.493 5.556-1.583c-1.477-4.544-3.646-4.955-7.937-3.164 1.141-4.782 4.4-7.438 8.73-9.493.023 8.042 2.865 15.467 11.113 18.195l1.587-13.449h1.588c-.968 7.634 1.696 19.009 11.894 12.102 4.238-2.87 5.868-7.936 9.536-11.31.846 6.232 3.265 10.663 9.525 12.657l2.38-7.911 3.176 3.956h1.587c4.233-10.286 3.22-15.641-1.587-25.316h-.794l3.968 19.778L89.7 72.781c-2.935 7.083 3.593 11.259 3.969 18.195-5.981-2.844-8.671-6.886-8.73-13.448-4.828 1.725-6.145 6.727-9.663 10.135-3.147 3.048-16.092 4.865-12.454-2.838 1.288-2.727 5.517-3.151 7.83-4.688C77.022 75.9 87.225 67.28 87.32 59.332c-10.31 5.912-14.377 7.128-26.192 7.12 6.426-5.692 17.199-.25 17.461-11.075 12.654-.113 12.529-9.856 19.454-17.153 2.976-3.136 12.04-4.782 16.264-4.998.138 6.494 2.774 11.85 9.524 13.449l2.381-7.911 3.175 3.955h1.588l2.38-11.866c10.109 2.392 16.673-4.122 23.812-10.233 3.686-3.155 7.115-4.427 7.938-9.545l-12.7 4.969-14.287-1.013c6.75-7.82 17.196 3.071 19.843-9.493-8.176 2.964-18.96-3.788-21.17 8.702-.366 2.076-.259 4.23-.26 6.329l12.7 1.582v.79c-9.355 2.66-14.89 4.62-21.431-3.955-2.925 6.955 2.393 10.869 3.968 17.405L121.45 22.94c-3.743 6.239 3.098 11.668 3.175 18.196-6.573-3.797-6.864-7.727-8.73-14.24l-17.463 4.747C96.485 24.806 94.255 17.53 87.32 14.24c-2.876 9.025-4.101 20.278 7.937 22.15-5.506 17.187-23.009 15.685-27.78-.79l15.875 10.284c-3.577-6.871-10.455-11.332-17.462-14.24 1.634-5.736 4.323-20.14 9.072-23.782 4.105-3.148 12.192-2.066 17.12-3.907.227 10.917 6.164 22.514 19.05 18.11 4.932-1.685 8.092-5.34 11.906-8.616v7.12h.793L130.975 0c-3.516.567-4.848 2.43-6.35 5.538h-.794c-1.4-3.474-2.45-5.236-6.35-5.538.803 2.578 3.327 5.943 2.667 8.699-2.745 11.472-27.39 11.007-26.056-2.336.268-2.68 3.518-4.454 5.134-6.363zm38.099 2.373c-9.884-5.873-5.765 9.528 0 0M138.118 0c3.614 4.43 10.49 5.705 13.493 0zm22.224 0c4.683 10.611 13.924 13.449 24.606 13.449.058 21.11 26.775 21.277 34.13 38.764l-4.763-2.374h-.794c.966 4.767 5.297 9.13 10.288 5.852 5.95-3.91 9.021-15.06 17.493-9.016-11.414 5.004-14.399 17.408-27.78 20.568 0-4.053.684-8.892-1.34-12.583-4.594-8.373-15.986-4.09-21.647.464-5.11 4.11-7.038 13.836-12.247 16.812-8.634 4.933-12.256-12.583-13.183-17.35h-.794c-3.903 14.899-12.096 4.394-19.05 0 .033 11.322 9.413 15.035 0 25.315 1.409-11.106-1.274-21.285-12.699-26.106l-1.587 5.537c9.252 6.1 17.89 16.262 8.73 26.107l1.588-10.285h-.794c-2.252 14.988-12.296 16.934-25.399 14.24 4.81-4.362 8.657-5.93 15.081-4.746 2.016-5.885-1.682-7.433-7.143-5.433-4.466 1.637-7.315 4.971-8.731 9.388l-3.175-.791v.791l2.38 1.582c-4.46-1.26-9.154-8.882-6.988-13.448 4.734-9.98 19.871-10.42 25.023-.79 1.454 2.715 1.745 5.687 1.809 8.7h.794c.36-8.506-.002-16.32-6.496-22.795-7.89-7.866-21.397-10.79-22.078-23.88h-.794c0 13.831 5.626 15.896 14.287 25.316-13.183.682-17.827 14.378-13.071 25.315 4.424 10.175 15.157 15.492 21.207 24.524 2.818 4.209 3.728 8.463 3.77 13.449h.794c0-8.592-.698-14.808-5.557-22.151l7.144-1.582c.001 9.626 5.779 30.932 15.877 34.812 5.754 2.211 11.384-.218 16.665-2.377-.91 5.988-5.976 10.333-6.904 16.613-2.409 16.295 11.752 24.524 25.954 24.524.055 19.757 25.094 22.775 34.13 37.973l-5.556-1.582c.99 4.893 5.25 8.98 10.287 5.741 5.91-3.8 9.128-14.829 17.493-8.906-11.665 5.114-14.83 17.398-28.574 20.569 3.828-12.91-6.12-21.536-18.256-14.885-8.466 4.641-9.094 13.602-15.595 19.142-4.944 4.212-11.154-5.15-12.15-9.004-.672-2.597-1.11-5.278-1.622-7.91h-.794c-3.908 14.919-12.073 4.203-19.05 0l5.52 16.612-4.725 8.702h-.794c1.379-10.874-1.182-21.659-12.7-26.106l-1.587 5.538c9.44 5.885 17.804 16.354 8.73 26.106l1.588-10.284h-.794c-3.091 14.738-11.735 16.88-25.399 14.24 4.664-4.23 8.79-6.236 15.081-4.747l1.587-5.538c-7.733-2.277-15.024 1.89-17.461 9.493l-3.175-.79v.79l2.38 1.583c-4.397-1.262-9.123-8.945-6.988-13.449 4.825-10.176 19.812-10.493 25.134-.79 1.461 2.665 1.636 5.737 1.698 8.7h.794c.347-8.078.306-15.729-5.703-22.079-8.054-8.508-21.678-11.057-22.871-24.595h-.794c0 12.439 3.942 17.567 14.287 24.524-2.741.777-5.536 1.442-7.934 3.05-21.087 14.135 6.207 34.431 14.537 45.207 2.627 3.398 4.116 6.995 5.303 11.075h.794c-.019-6.64-1.672-11.965-5.557-17.404l7.144-1.582c0 5.856.162 14.633 5.927 18.173 5.582 3.43 19.315.814 25.822.814 1.932-7.088 9.803-15.226 3.624-22.86-2.931-3.62-11.507-4.265-12.794-8.867-1.81-6.471 6.487-6.539 9.963-4.664-.012-14.69-11.496-4.45-12.552 4.747-1.26 10.972 17.108 9.594 15.417 18.65-.506 2.71-3.702 5.246-5.246 7.456h-.794c-5.498-9.844-16.03-19.456-14.286-31.644h-.794c-4.573 14.413 5.996 22.687 11.112 34.808l-9.525 1.582c1.313-10.584-2.375-21.946-14.287-23.733 6.079-10.296 17.182-15.049 17.462-28.48 5.493-.015 9.408-1.038 11.906-6.328h.794c.449 5.482 4.24 9.919 4.746 15.031.62 6.256-3.133 15.773.605 21.285 7.635 11.26 17.68.754 12.652-9.415-2.702-5.465-9.34-6.835-11.654-12.661l6.35 2.373-.794 3.165h.794l.794-3.956c7.517-.067 12.18-3.392 15.08-10.284h.794c4.02 7.3 15.681 2.368 23.018 2.373-8.402 10.107-23.726 2.686-28.574 16.613l23.8-7.886 6.67-7.47 9.998-5.38 15.093-14.863a28.8 28.8 0 0 0-2.211-5.539c-6.998-13.277-14.936-2.036-21.6 4.748-1.11-13.513-12.24-17.162-22.225-23.627-3.367-2.18-11.212-7.158-10.909-11.859.188-2.911 5.644-3.777 7.734-4.846 4.878-2.494 8.732-5.767 10.318-11.09h-.793c-4.175 5.387-10.546 7.154-16.668 9.493 4.526-6.271 11.03-9.03 18.255-11.075.677 4.569 2.762 8.811 3.103 13.449.326 4.418-1.086 10.172 1.118 14.205 4.383 8.02 12.1 3.035 14.828-3.13l11.112 5.538c1.777-7.436 1.221-15.79-4.796-21.191-4.602-4.132-10.156-5.67-13.46-11.244l5.557-6.33c-5.002 2.328-15.718 4.238-17.79-3.198-.859-3.084.672-6.412 1.122-9.459l3.175 3.956h1.587c3.238-9.556 4.846-17.053-2.381-25.315-2.433 6.865 3.049 12.21 3.969 18.986l-11.113-13.449c-3.486 7.265 4.241 11.016 3.175 18.196-5.268-3.617-7.878-6.956-7.937-13.449l-14.287 11.298-15.874-2.596c2.44-8.683 11.988-18.102 17.462-25.315h.793c9.283 10.755 16.048-3.06 22.225-8.702.286 14.397-17.325 14.588-20.637 28.48h.794c4.556-8.754 15.14-12.504 22.224-18.987l14.058 21.36L211.14 151.1c4.631-1.26 16.09-2.208 19.436-5.224 4.983-4.493-.22-11.295-.92-16.136-.968-6.7 1.813-12.851-.26-19.777 12.429 2.334 26.538-.083 32.542-12.658-9.604 5.907-33.334 17.466-33.336-2.373h-.793l-.794 6.329-7.937-8.702 5.556-.792-.794-5.537-7.144.79c2.499-3.916 4.999-7.167 9.525-8.701.001 8.335 2.253 15.573 11.112 18.195l3.175-13.449c-1.67 6.994.8 17.823 10.307 12.721 5.147-2.762 7.54-8.406 11.123-12.72.138 6.404 2.885 11.874 9.525 13.448l2.381-7.911 4.763 3.956c2.877-10.057 4.635-16.403-2.382-25.316l3.175 19.778h-.794l-9.524-14.24c-3.729 6.214 3.018 11.711 3.175 18.195-5.599-3.234-8.148-7.01-7.938-13.448-5.296 1.517-6.61 7.213-10.548 10.654-3.22 2.815-15.503 3.643-12.039-3.489 1.324-2.725 5.913-3.243 8.3-4.768 6.056-3.868 16.582-13.27 16.669-20.593L254 66.618l-13.493-.166c5.821-7.135 16.909.778 17.462-11.075 12.234-.287 12.662-9.62 18.924-17.153 3.813-4.587 8.763-1.165 8.856-8.953l-8.731 2.373c-1.442-7.405-3.945-12.917-10.318-17.404-3.76 8.71-3.974 20.927 7.937 22.15-7.62 17.6-21.183 14.684-28.574-.79l16.668 10.284-16.5-15.2 2.53-10.115 4.893-12.212 17.808-4.401c.006 9.801 2.99 18.721 14.287 18.986v-5.538c-9.852-.884-17.325-10.577-7.144-16.613V0h-25.399c-7.505 6.601-14.187 7.971-14.287 19.777h.794c1.527-6.019 5.338-9.726 11.112-11.866l-6.35 23.733-18.255-.791c1.998 6.865 12.445 3.955 18.256 3.955.626 7.641 4.053 17.11 11.905 19.778v1.582c-4.033.957-8.87-.155-12.665 1.378-5.922 2.393-4.796 10.135-4.796 15.235h12.699v.791c-4.192 1.737-8.762 4.615-13.493 3.503-4.127-.97-7.433-5.42-11.906-4.73-9.96 1.539-6.44 12.322-12.158 16.116-8.349 5.541-26.037-4.998-26.7 12.009-.093 2.421.318 4.751.76 7.12h.793c.262-11.087 8.985-12.658 18.256-12.658-5.379 6.29-12.991 21.773-22.224 11.075l-18.256 20.569c-1.28-8.854 6.832-16.43 3.38-25.312-2.16-5.557-14.066-6.303-14.249-11.903-.201-6.18 6.443-5.881 10.075-3.922-.01-14.301-11.498-4.124-12.552 4.746-1.355 11.412 16.778 9.2 15.52 18.65-.375 2.819-3.706 5.292-5.349 7.456h-.794c-5.553-9.942-16.054-19.29-14.286-31.643h-.794c-3.8 14.64 5.255 22.468 11.112 34.808l-9.525 1.582c1.24-10.468-2.437-21.955-14.287-23.733 6.187-10.24 17.35-15.06 17.462-28.48 5.188-.014 9.175-.751 11.906-5.537 1.998 4.628 2.274 10.134 7.143 12.657-3.178 6.076-4.608 21.032 1.623 25.59 9.379 6.862 13.871-4.38 10.03-12.138-2.72-5.495-9.559-6.648-11.653-12.66l6.35 2.373-.794 3.164h.794l15.875-14.24h.793c4.052 7.533 15.55 2.373 23.018 2.374-8.1 10.287-23.709 2.739-28.574 16.613l23.8-7.636 6.67-7.72 11.523-6.807 13.568-12.645c-.357-1.995-.9-3.707-1.805-5.54-6.804-13.78-14.947-3.228-22.007 3.957-1.17-14.257-13.548-17.62-23.812-24.598-2.752-1.87-10.614-7.462-9.19-11.553.84-2.408 5.57-3.14 7.603-4.18 4.67-2.388 8.066-5.584 10.318-10.299l-17.461 8.702 9.524-7.91V0c-7.568.027-7.165 4.682-12.846 7.889-2.76 1.558-6.444.392-9.378.022-.012-4.232.161-7.52-4.762-7.911l3.175 6.329zm23.812 0 .794.791zm23.018 0c.982 6.651.347 19.646 3.427 25.281 4.429 8.103 12.088 3.075 14.828-3.13l11.112 5.537C239.652 14.66 232.167.434 217.49 0c1.788 7.323-3.166 17.266 6.35 20.569-3.908 4.898-9.514 3.416-11.899-2.377-2.046-4.97.446-10.697-1.144-15.702-.612-1.928-1.839-2.18-3.625-2.49m29.367 0v.791h15.081zm48.416.791.794 4.747zM103.988 13.45h.794l11.112-3.956c-3.611-4.48-18.492-4.11-11.906 3.956m23.018-3.165 3.969-.79-1.588 3.955c3.112-.98 6.056-1.466 7.144-4.747-4.056-1.364-7.672-3.424-9.525 1.582m153.188.791 3.175 2.374c4.86-4.75-1.155-9.311-3.175-2.374M46.84 15.822c-11.672-3.465-.277-12.894 0 0m179.38 0c-12.049-2.425-.617-13.235 0 0M50.015 10.284c3.884 3.014 6.374 6.158 7.144 11.076-5.6-2.324-10.34-4.445-7.144-11.076m178.587 0c4.444 2.616 6.743 6.109 7.937 11.076-5.31-1.926-10.62-4.7-7.937-11.076M23.03 18.986h.794l3.175-4.746c-5.04-2.891-8.358.475-3.969 4.746m144.457-7.12c-1.294 4.408 1.518 7.719.764 11.867-3.393 18.665-14.225 28.337-33.307 22.15 3.747-3.405 7.727-6.039 12.7-7.308 5.618-1.435 11.499 2.094 12.7-5.349-16.956-3.137-30.43 9.072-35.718 24.524 3.089-2.613 5.355-8.834 9.536-9.758 2.938-.65 6.74 2.258 9.513 3.081 7.979 2.37 14.365.916 20.637-4.398 2.234 9.598 11.917 18.504 21.06 9.865 10.508-9.93 7.007-28.616-5.98-34.39-4.742 9.768-1.592 20.463 10.319 20.57-2.859 9.683-20.092 18.066-22.77 3.164-.78-4.344 5.48-9.873 6.617-14.24 1.742-6.688-1.25-12.365-1.309-18.986h-.794v3.955h-.793zm30.955 4.747c3.943 1.853 5.665 1.382 7.937-2.373-3.91-2.329-6.179-2-7.937 2.373m57.148.791c-1.993 3.055-2.554 5.052.793 7.12-3.468 5.798 1.404 9.35 4.763 3.164l-3.969-2.373v-.79l3.175-3.165v-.791zM73.827 22.942c2.401 2.355 1.639 4.061.794 7.12l4.762 2.373c1.626-2.807 2.28-4.58-.794-6.329l2.381-6.329c-3.816-1.492-5.762-.75-7.143 3.165m14.287-3.165 7.937 11.076c-5.675-.583-12.033-5.09-7.937-11.076m179.38 0 7.144 11.076c-5.401-.972-11.941-5.495-7.144-11.076M.011 22.151c.082 6.88 5.594 9.889 9.525 15.03L.01 33.227c.09 7.494 4.455 8.996 11.113 10.283C7.57 49.488.095 53.065.011 60.123c17.165-5.463 16.012-31.79 0-37.972m157.156 5.537c9.911 5.698 4.27-10.617 0 0m14.287-3.955c2.13 6.756-.692 11.025-6.35 15.03zm7.938 3.955 9.524 9.494c-5.037-.261-11.983-3.41-9.524-9.494M39.697 39.555l4.762 2.373 2.382-5.537c-3.817-1.493-5.763-.75-7.144 3.164m182.555 2.373c8.955-6.88-7.862-7.652 0 0m61.91-3.955.794 12.657h.794zM17.473 41.137c-3.379 5.839 2.56 8.6 4.762 2.373zm184.143 2.373c-9.91-5.697-4.269 10.617 0 0M96.845 45.093l-2.381 3.164v.791l3.968 2.373-3.175 5.538c3.826 2.194 5.853 1.489 7.938-2.373l-3.969-1.582 3.175-5.538zm177 4.746 3.174 1.582c-2.664 6.148 2.336 10.026 4.762 3.165l-3.175-1.582c2.69-6.21-2.298-10.148-4.762-3.165m-155.569 3.165c3.754 1.465 5.975.849 7.144-3.165-3.754-1.465-5.975-.85-7.144 3.165m-85.721 9.493c-6.22 2.3-12.24 8.044-16.668 0C11.71 67.874 9.663 71.71 2.392 72.78c2.37-7.414 9.007-14.589 16.668-16.67 5.714-1.552 12.194.1 13.494 6.386m179.38 0c-5.922 1.736-13.14 8.58-16.668 0h-1.587c-2.206 6.441-5.766 9.677-12.7 10.284 4.226-9.008 24.79-28.197 30.955-10.284m-102.39-4.747c-7.057 7.676-16.626.453-21.43 11.867 6-3.248 22.145-2.769 21.43-11.867m175.412 3.165c-7.57 2.23-14.586-.941-17.462 8.702h.794c3.67-3.93 18.964-2.787 16.668-8.702m-124.614 7.91c-7.158 8.748 9.223 5.77 0 0m124.614 1.583c-2.006 6.306-1.786 11.86 0 18.195h.794zM116.688 71.99c-2.76 3.59-2.474 5.72 1.587 7.911l3.175-4.747zm-68.26 5.538c5.302 3.358 9.35 7.037 10.318 13.448-5.032-1.705-11.53-7.603-10.318-13.448m179.38 0c5.174 3.522 9.182 6.873 9.525 13.448-4.765-2.09-11.575-7.541-9.525-13.448M.011 85.438l3.175 13.45-3.175-.792c.017 1.384-.117 7.037 2.814 5.399C8.742 100.188 4.473 87.75.01 85.439m182.555 12.657-.793.791c-5.825-1.684-12.044-4.808-10.319-11.866 5.486 2.073 9.175 5.549 11.112 11.075m-79.371-10.284c-1.614 9.067 1.719 16.184 10.318 19.777 1.524-6.689-4.045-7.11-7.42-11.878-1.73-2.445-1.76-5.274-2.898-7.9m178.586 0c0 5.442-.34 11.077 3.969 15.032zm-147.631 7.12-9.525 7.91h-.794l-10.318-9.492.794-3.165zm-96.04-.791c1.77 6.112 6.476 9.129 9.383 14.374 2.617 4.72 3.23 14.581 1.729 19.643-7.231-5.528-16.211-15.448-13.493-24.524h-.794l-3.175 3.164c-1.702-6.428-.242-10.112 6.35-12.657m178.586 0 9.91 14.465 1.996 19.552c-8.432-4.938-16.118-16.116-13.493-25.315h-.794l-1.587 3.955h-1.588c-2.487-6.485-.666-9.49 5.556-12.657M97.64 100.47c-5.274 4.553-10.066 2.391-15.843 4.927-6.565 2.881-8.396 15.086-.029 16.77 12.31 2.48 31.77-16.238 41.27-4.293-12.915 0-22.594 6.977-34.923 9.287-4.74.887-10.847 1.794-14.82-1.719-4.069-3.598-4.195-9.123-5.817-13.897-9.48 4.246-11.656 17.696-6.244 26.103 2.452 3.807 6.568 5.387 9.42 8.705h-6.35c1.226 7.627 6.476 5.93 11.905 3.165l.794 3.955h.794v-5.538l10.318.792v1.582c-9.994 2.366-19.1 11.752-30.161 8.208-3.458-1.108-5.912-3.716-8.731-5.835 2.151 11.884 14.713 13.977 24.605 10.284-7.388 7.146-13.772 8.655-14.287 20.569h.794c1.817-6.187 5.549-10.776 11.906-12.658l-7.144 23.733-18.255-.79c3.013 8.546 11.36.844 17.118 4.768 6.663 4.54 3.475 16.065 13.837 18.964-3.796 3.545-8.15 1.356-12.668 2.78-6.103 1.923-6.281 10.4-4.794 15.415H72.24v.791c-4.215 1.747-8.74 4.447-13.494 3.355-4.028-.925-7.542-5.795-11.905-4.763-8.946 2.115-6.517 11.254-11.56 15.852-1.923 1.753-5.093 1.374-7.49 1.378-4.263.007-9.564-.83-13.49 1.153-5.182 2.619-9.197 11.87-3.971 16.252-.922-10.492 9.523-11.867 17.461-11.867-5.239 6.794-13.405 21.925-22.224 10.284C.601 271.711.012 275.07.011 280.84h.794c5.527-7.766 7.97-1.295 15.08-2.807 5.918-1.259 9.913-7.773 11.906-13.015h.794l.364 7.544-15.445 11.442v.792c7.484-.18 12.392-5.501 18.256-9.494 2.037 6.122 5.46 9.47 11.906 9.493-6.187-9.018-10.008-10.653-6.35-21.36h-.794l-4.762 6.33c-1.089-6.545.382-9.22 6.35-12.658l9.733 15.825 3.76 11.863-.794-11.866c11.96 2.213 26.346-.417 31.749-12.658-8.4 5.514-33.269 17.406-33.336-1.582h-.794l-.794 5.538-7.143-8.702 5.556-1.582c-1.468-4.515-3.496-4.763-7.937-3.956l8.73-9.493c.006 8.198 2.54 16.082 11.113 18.986l1.587-13.448h1.588c-.968 7.632 1.839 18.69 11.874 11.962 4.242-2.844 5.782-7.95 9.556-11.171.812 5.975 3.578 10.642 9.525 12.657l2.38-7.91 4.763 3.955c4.202-10.264 3.193-15.694-1.587-25.315h-.794l3.968 18.986-11.112-13.449c-2.916 7.037 3.607 11.25 3.969 18.196-5.726-2.961-8.673-7.047-8.73-13.449-5.12 1.51-6.495 7.464-10.39 10.803-3.153 2.701-15.031 3.664-11.727-3.57 1.327-2.903 6.17-3.626 8.623-5.365 5.938-4.21 15.785-12.55 15.874-20.063-10.22 5.677-14.53 7.12-26.192 7.12 6.377-5.649 17.337-.596 17.461-11.076 13.232-.282 12.227-10.702 19.607-17.718 2.918-2.774 12.127-4.25 16.11-4.433.14 6.494 2.775 11.85 9.525 13.45l2.381-7.912 4.763 3.956 2.38-11.867c10.08 2.385 16.665-4.084 23.812-10.15 3.706-3.143 7.115-4.511 7.938-9.627l-12.7 4.968-14.287-1.013c6.776-7.73 17.206 3.024 19.843-9.493-8.225 2.553-19.013-3.49-21.17 8.702-.367 2.076-.259 4.23-.26 6.329l12.7 1.582v.791c-9.393 2.555-14.872 4.644-21.431-3.955-2.8 6.658 2.124 11.11 3.968 17.404l-10.318-13.449c-3.924 6.54 3.64 11.437 3.175 18.195-6.573-3.797-6.864-7.727-8.73-14.24l-17.463 4.747c-1.999-7.074-4.143-13.725-11.112-17.404-2.902 9.105-4.18 20.333 7.937 22.15-5.481 17.11-23.036 15.59-27.78-.79l15.875 10.284c-3.622-6.959-10.379-11.3-17.462-14.24l7.937-24.524 18.256-3.164c.442 21.38 17.654 22.475 30.955 9.493v7.12h.793c2.268-9.492 3.144-19.71 13.493-24.524.646 5.77 6.98 10.586 12.53 6.532 7.845-5.73 3.826-20.307-3.799-23.936-3.005 6.327 5.4 12.498 5.556 19.777-7.358.77-10.468-1.924-12.7-8.702-8.351 2.473-9.735 10.766-15.873 15.822l-3.175-9.493c11.197-1.15 14.159-13.964 23.811-18.195a30 30 0 0 0-2.63-6.329c-9.5-17.107-16.42 8.548-27.531 3.955 5.948 19.904 17.572-12.58 26.193-2.373l-23.018 18.986c-3.547-9.655-9.518-16.078-9.525-26.897h-.794c-2.641 11.058 1.82 18.81 6.35 28.48h-9.524c5.173 6.129 13.915 1.77 16.804 12.657 1.538 5.8-7.45 9.949-12.042 10.694-8.496 1.379-14.107-6.23-14.287-13.858 16.724-3.373 8.153-27.139.794-34.809 10.35-4.002 18.875-7.91 30.161-7.91.026-3.36.759-7.03-.459-10.253-2.018-5.342-8.204-5.39-13.034-4.369-11.469 2.424-21.268 10.303-33.336 5.92 5.231-4.649 23.902-3.846 19.843-14.24m117.47 0v2.373h.794zm61.116 0c-5.003 5.709-12.899 1.613-17.942 6.64-3.389 3.377-4.4 11.907.527 14.376 7.786 3.901 26.833-2.487 26.94-11.523-9.244 3.573-18.66 8.348-28.574 4.746 4.66-5.864 23.757-2.948 19.05-14.24m-240.497.792v2.373h.793zm100.008 1.582c7.321 3.629 11.528 9.154 11.906 17.404-6.616-1.568-14.875-10.145-11.906-17.404m114.296 43.51h-6.35c.805 7.137 6.131 6.221 11.112 3.165l1.587 3.955h.794c.238-7.276 5.495-7.29 10.318-3.164-13.96 2.48-26.791 17.072-38.892 1.582h-.794c3.017 12.654 14.272 14.591 25.4 11.075-7.871 6.923-14.254 8.366-14.288 20.569h.794c1.138-6.285 5.207-10.47 11.112-12.658l-6.35 23.733-18.255-.79c1.998 6.864 12.445 3.955 18.256 3.955.642 7.84 4.089 16.75 11.905 19.777v1.582c-4.033.957-8.87-.155-12.665 1.379-5.922 2.392-4.796 10.134-4.796 15.234h12.699v.791c-3.726 1.524-7.75 3.781-11.906 3.578-4.39-.214-7.037-3.96-11.112-4.786-8.83-1.79-12.644 9.68-12.7 16.24-12.906 1.625-32.49-1.526-27.78 18.195h.794c.56-10.73 9.44-11.867 18.256-11.867-5.295 6.192-13.091 21.498-22.224 11.076-6.092 2.156-10.503 10.035-12.7 15.821 7.02-.228 8.55-7.255 14.287-10.284 7.257 11.59 16.527-4.223 21.43-8.702.233 11.65-8.556 11.118-15.08 18.986 6.789-.2 12.615-5.084 17.462-9.493 2.64 5.539 5.476 9.418 11.905 9.493l-8.387-12.657 2.038-8.702h-.794l-2.381 6.329h-1.588c-1.866-6.872-.276-9.368 6.35-12.658l8.74 14.374 2.372 13.314c3.09-2.426 1.588-8.234 1.588-11.866 10.558 1.954 27.932-.02 30.955-12.658h-.794c-8.204 9.18-31.747 14.994-31.749-2.373h-.794l-.793 6.329-7.938-8.702 5.556-.791-1.587-6.329-6.35 1.582 9.525-9.493c0 8.626 1.963 16.075 11.112 18.986l3.175-13.448c-1.641 6.87.864 17.906 10.318 12.586 5.055-2.844 7.373-8.435 11.112-12.586.144 6.704 2.832 11.467 9.525 13.448l2.381-7.91 4.762 3.955c2.905-10.147 4.726-16.323-2.38-25.315l3.174 19.777h-.794l-9.524-14.24c-3.743 6.238 3.098 11.668 3.175 18.196-5.497-3.492-8.153-6.853-7.938-13.449-5.054 1.448-6.622 6.809-10.33 10.198-3.069 2.805-15.903 4.545-12.257-3.035 1.344-2.794 5.869-3.35 8.3-4.895 6.046-3.843 16.582-13.162 16.669-20.463l-12.7 7.286-13.493-.166c5.699-7.166 16.921.489 17.462-11.076 12.148-.284 12.684-9.647 18.924-17.153 3.813-4.586 8.763-1.165 8.856-8.953l-8.731 2.373c-1.803-7.458-3.69-12.737-10.318-17.404-3.76 8.71-3.974 20.927 7.937 22.151-7.61 17.573-21.238 14.637-28.574-.791l16.668 10.284-16.5-15.2 2.363-9.324 5.06-13.002 17.808-4.402c.006 9.743 3.064 18.723 14.287 18.986v-5.537c-5.19-.712-14.205-5.006-12.754-11.784.661-3.087 5.12-4.43 6.655-7.237 6.032-11.038 1.556-21.83-6.6-30.028l12.699-4.746v-5.538c-9.992 2.36-27.917 13.969-35.713 1.57-2.066-3.286-2.27-7.381-3.18-11.063-9.981 3.41-12.06 18.017-6.586 26.103 2.538 3.748 6.697 5.553 9.761 8.705M54.778 113.127c-2.326 5.907 2.593 7.83 5.556 2.373zm176.999 4.747 4.762 2.373c3.38-5.839-2.56-8.6-4.762-2.373m-201.605 0 3.97 19.777h-.795l-9.524-14.24h-.794l3.969 18.196c-5.468-3.152-8.58-7.067-8.731-13.449-7.632 2.182-9.1 11.392-18.256 11.866l2.381 15.031-2.38-.79 2.38 6.328.794-15.822 13.493-11.075 7.937 16.613c-10.173-3.215-21.085 1.098-19.049 13.448h.794c.116-10.364 8.752-11.544 16.668-7.12-8.92 3.721-13.597 14.998-23.018 15.031v4.747h5.556c.454 21.814 28.63 20.131 34.13 38.764l-5.556-2.373c5.772 19.352 17.949-10.125 27.78-3.165-11.23 5.34-14.394 17.407-27.78 20.569 1.59-12.541-6.024-22.483-19.05-14.652C6.138 220.942.04 230.938.012 241.285c7.057-.15 12.214-3.328 14.287-10.284h1.588c3.576 7.396 15.152 2.354 22.224 2.373-7.497 9.652-25.242 2.645-27.78 16.613l23.737-8.088 6.733-7.744 10.565-5.674 13.731-13.302c-.594-5.785-5.331-15.778-12.699-12.285-4.758 2.257-7.039 7.588-11.112 10.703-.425-19.865-27.132-20.542-34.13-37.182 8.388-1.935 16.244-6.086 19.843-14.24 3.612 8.122.547 17.894 4.22 25.312 4.11 8.3 12.457 4.97 14.829-2.37l11.906 4.747c.897-7.08.902-14.945-4.91-20.16-3.099-2.78-11.358-5.227-12.052-9.834-.346-2.3 3.37-5.732 4.262-7.98-11.515 4.075-20.984.801-16.668-12.657h.794l3.175 3.956c3.784-9.197 5.629-17.633-2.382-25.315m36.512 0c1.326 16.169 12.581 15.862 25.399 14.24-1.35 9.99-2.683 18.442 9.524 21.36-4.041 9.13-17.808 11.288-26.986 10.283 3.965-4.61 10.92-7.04 16.668-8.702-1.598-4.152-2.547-9.337-6.43-12.079-3.541-2.5-6.698.26-10.239-1.14-10.694-4.224-21.59-16.073-7.936-23.962m179.38.79c.75 16.309 13.508 14.393 25.399 13.45-2.643 9.373-2.318 18.576 8.73 21.36-3.24 10.778-17.34 8.973-26.192 11.075 1.788-5.217 10.757-8.254 15.875-8.703-.412-4.092-1.85-9.362-5.033-12.213-3.526-3.16-6.928-.788-10.842-1.973-9.036-2.736-24.152-18.446-7.937-22.995m-104.77 3.955c2.984 2.501 5.458 3.746 4.761 7.911-2.968-1.537-5.34-4.444-4.762-7.91m20.637 0c4.344 10.645-6.765 11.631-15.08 9.493l1.587-5.538zm19.049 1.583-3.175 3.955v.791l6.35 3.165c1.595-4.03.342-5.644-3.175-7.911M7.155 127.367c-11.155-5.461-4.198 10.44 0 0m110.327-.791c-4.742 5.807 2.092 8.813 3.968 2.373zm167.474 2.373v13.449h.794zm-89.69 4.747 7.937 16.613c-10.439-2.924-18.945 1.9-19.05 13.448h.795c.723-9.656 9.446-13.072 17.461-7.12-6.893 3.36-13.02 7.634-15.874 15.031l-11.112-.79c-.063-6.949-3.147-11.005-7.937-15.823l6.35 14.24c-15.983-2.883-16.134-19.943-3.969-27.688.025 8.866 3.623 14.242 11.112 18.986l2.066-14.734 10.634-12.163zm31.749.79 3.175 7.12-7.938.792zm-175.412 7.12-8.731.79 3.969-7.12zm42.067-4.747 7.143 11.075c-4.797-1.631-11.822-5.499-7.143-11.075m186.524 11.075c-5.742-1.675-10.132-4.548-8.731-11.075 4.482 2.1 7.602 6.287 8.73 11.075m-125.407-7.91-3.175 5.537c3.754 1.465 5.975.85 7.144-3.164zm-100.802 5.538 3.969 2.373v.792c-4.77 4.355.77 7.25 4.762 3.164v-.791l-3.969-2.373 3.175-5.538c-3.883-1.821-5.837-1.494-7.937 2.373m181.762-4.746c-1.626 2.806-2.28 4.58.793 6.328-2.689 6.21 2.299 10.148 4.763 3.165-2.401-2.355-1.64-4.062-.794-7.12zm-64.292.79c5.883 2.79 9.346 6.984 10.319 13.45-4.915-2.155-11.578-7.38-10.319-13.45m110.327 15.032v.79l3.969.792zM38.11 159.011c.475 9.13-.706 19.333 7.143 25.315-4.66 4.289-10.208 2.871-12.582-3.165-2.084-5.3-1.45-15.456-1.705-21.36zm179.38 0c.192 8.17-2.005 20.1 6.35 24.524-2.74 5.072-8.926 4.092-11.543-.825-3.163-5.94-1.347-16.156-2.744-22.908zm-190.492 1.582c-3.249 6.885-11.278 9.466-18.256 11.075 4.409-6.22 10.944-9.388 18.256-11.075m80.165 1.582c-4.349 5.657 1.41 9.34 4.763 3.165zm177.793 1.582.794 4.747zm-180.968 4.747c-3.392 4.157-.202 9.717 3.175 4.747 3.787 1.628 5.433 1.891 8.731-.792v-.79zm179.38 0-3.174 5.538 3.175 2.373h.794c1.677-3.153 1.838-5.339-.794-7.911m-156.363 4.747 3.969-.792-1.588 3.956c3.112-.98 6.056-1.465 7.144-4.747-4.056-1.364-7.672-3.424-9.525 1.583m-80.165 5.537c-11.752-3.489-.118-12.917 0 0m179.38 0c-12.203-2.456-.618-13.244 0 0m-176.206-5.537c4.065 2.88 6.397 6.132 7.144 11.075-5.6-2.324-10.34-4.444-7.144-11.075m186.524 11.075c-6.26-2.598-8.725-4.154-8.73-11.075 5.14 1.756 7.51 6.005 8.73 11.075m-213.51-2.373c8.705-6.964-7.783-7.575 0 0m144.457-7.12c-1.287 4.38 1.57 7.772.724 11.866-3.826 18.525-13.825 28.347-33.267 22.151 3.697-3.36 7.737-6.237 12.7-7.373 5.632-1.288 11.506 2.116 12.7-5.285-16.983-3.142-30.44 9.076-35.718 24.524h.794c2.095-3.095 4.731-8.88 8.734-9.758 3.207-.703 8.004 2.516 11.109 3.398 7.415 2.106 13.338.124 19.049-4.715 2.243 9.412 11.425 18.29 20.602 10.115 10.987-9.787 7.747-28.741-5.521-34.639-4.72 9.763-1.558 20.463 10.318 20.569-2.859 9.614-20.105 17.994-22.77 3.164-.768-4.275 5.38-9.89 6.487-14.24 1.715-6.738-1.12-12.329-1.179-18.986h-.794v3.955h-.793zm30.955 4.746c3.943 1.853 5.665 1.382 7.937-2.373-3.86-2.293-6.357-2.104-7.937 2.373m57.148.792c-1.993 3.054-2.554 5.05.793 7.12-3.468 5.797 1.404 9.348 4.763 3.164l-3.969-2.374v-.79c3.293-3.008 1.855-5.052-1.587-7.12m-181.762 5.537c2.401 2.355 1.639 4.062.794 7.12l4.762 2.373c1.626-2.806 2.28-4.58-.794-6.328l2.381-6.33c-3.753-1.464-5.974-.849-7.143 3.165m14.287-3.164 7.937 11.075c-5.675-.583-12.033-5.09-7.937-11.075m179.38 0 7.144 11.075c-5.432-.966-11.994-5.434-7.144-11.075M.011 185.117c.082 6.881 5.594 9.89 9.525 15.03L.01 196.193c.081 6.835 3.694 9.352 10.319 9.494L.01 223.09c16.566-6.139 16.54-31.586 0-37.973m157.156 5.538c3.95 2.043 5.655 1.42 7.938-2.374-3.979-2.14-6.153-2.064-7.938 2.374m14.287-3.956c2.13 6.756-.692 11.026-6.35 15.031zm8.731 3.955 8.731 9.493c-4.704-.244-12.824-3.853-8.73-9.493M39.696 202.52c4.01 1.885 6.204 1.411 7.144-3.164-3.817-1.493-5.763-.75-7.144 3.164m182.555 2.374c8.706-6.964-7.783-7.575 0 0m61.91-3.956.794 12.658h.794zm-266.689 3.164-2.381 4.747c5.858 3.368 8.629-2.552 2.381-4.747m181.762 7.12 2.38-4.746c-5.857-3.368-8.628 2.552-2.38 4.746m-104.771 0v.791l3.968 2.374-3.175 5.537c3.826 2.195 5.853 1.49 7.938-2.373l-3.969-1.582 3.175-5.538c-3.46-2.06-5.08-2.126-7.937.791m179.38 1.582 5.556 9.494 2.381-4.747-3.175-1.582 2.382-6.329c-3.827-1.27-5.756-.762-7.144 3.164m-155.569 3.165c3.754 1.465 5.975.85 7.144-3.164-3.754-1.466-5.975-.85-7.144 3.164m-85.721 9.493c-6.257 1.974-12.253 8.019-16.668 0h-1.588c-1.742 6.281-5.463 9.322-11.906 10.284 2.216-7.503 9.002-14.578 16.668-16.67 5.856-1.597 12.171-.089 13.494 6.386m179.38 0c-6.12 1.794-12.642 8.327-16.668 0h-1.587c-2.522 6.372-5.787 9.351-12.7 10.284 4.06-9.378 24.8-28.167 30.955-10.284m-102.39-4.746c-7.562 6.969-16.78.818-21.43 11.866 5.897-3.819 22.173-2.42 21.43-11.867m175.412 3.165c-7.664 2.258-14.548-1.073-17.462 8.702h.794c3.57-4.15 18.994-2.71 16.668-8.702m-125.407 7.91c-5.242 10.065 10.328 4.126 0 0m125.407 1.583c-2.006 6.307-1.786 11.86 0 18.195h.794zm-168.268 1.582c-2.845 3.692-2.409 6.143 2.381 7.12 1.41-3.56.872-5.085-2.381-7.12m-68.26 5.538c5.632 3.13 9.334 6.926 10.318 13.449-5.032-1.705-11.53-7.604-10.318-13.449m179.38 0c5.268 3.337 9.186 6.956 9.525 13.449-4.628-2.197-11.552-7.605-9.525-13.449m-82.546 2.373-.794.791zM.012 247.613l3.174 13.449H.011c.038 3.153.048 5.075 3.175 6.328 2.915-6.84 3.137-14.836-3.175-19.777m103.184 2.373c-1.078 8.687.694 18.707 11.112 19.778-.201-6.123-5.015-6.582-8.213-11.088-1.923-2.71-1.672-5.802-2.9-8.69m79.372 11.076c-6.36-.15-12.87-3.878-11.112-11.076 5.533 2.023 9.336 5.427 11.112 11.076m99.215-10.285 3.175 15.031h.794zm-147.631 7.12v2.372l-9.525 5.538h-.794c-3.452-3.441-9.601-7.504-9.524-12.657zm-36.511 5.538c-5.27 4.484-10.097 2.353-15.863 4.754-5.453 2.27-8.862 14.14-1.564 16.262 12.874 3.745 33.211-15.7 42.826-3.612l-18.256 3.164v.792h19.843c0-3.22.633-7.297-1.046-10.199-2.891-4.996-9.434-3.708-14.035-2.541-10.757 2.727-20.39 9.746-31.748 5.62 5.122-4.735 23.887-3.883 19.843-14.24m178.586 0c-5.022 5.732-12.886 1.657-18.034 6.64-3.26 3.156-4.384 12.046.619 14.132 8.004 3.339 26.828-1.89 26.94-11.279-9.184 3.55-18.743 8.318-28.574 4.747 4.647-5.862 23.7-3.085 19.05-14.24m-128.583 19.777c-7.94-1.881-12.535-9.675-12.7-17.404 8.117 2.38 12.506 9.134 12.7 17.404m-88.897 1.583 7.938-3.956 3.174 3.956-2.38-10.285c-4.763 1.649-7.044 5.75-8.732 10.285m179.38 0 7.938-3.956v3.956h3.175l-2.381-10.285c-4.918 1.671-7.332 5.453-8.731 10.285m-177.793-6.33c-9.805-5.839-5.224 9.621 0 0m171.443 2.374 4.762 2.373 2.382-5.537c-3.817-1.493-5.763-.75-7.144 3.164m-201.605 0-.793 3.955h3.968zm179.38 0-.793 3.955h3.175zm73.816 3.164v.792h2.38z" style="fill:#1f5e54;fill-opacity:1;stroke:none;stroke-width:10.7818"/></svg>