<?xml version="1.0" encoding="UTF-8" standalone="no"?>
<!-- Created with Inkscape (http://www.inkscape.org/) -->

<svg
   width="1080"
   height="1080"
   viewBox="0 0 285.75 285.75"
   version="1.1"
   id="svg1"
   xml:space="preserve"
   xmlns:inkscape="http://www.inkscape.org/namespaces/inkscape"
   xmlns:sodipodi="http://sodipodi.sourceforge.net/DTD/sodipodi-0.dtd"
   xmlns="http://www.w3.org/2000/svg"
   xmlns:svg="http://www.w3.org/2000/svg"><sodipodi:namedview
     id="namedview1"
     pagecolor="#505050"
     bordercolor="#ffffff"
     borderopacity="1"
     inkscape:showpageshadow="0"
     inkscape:pageopacity="0"
     inkscape:pagecheckerboard="1"
     inkscape:deskcolor="#505050"
     inkscape:document-units="mm"><inkscape:page
       x="0"
       y="0"
       width="285.75"
       height="285.75"
       id="page2"
       margin="0"
       bleed="0" /></sodipodi:namedview><defs
     id="defs1" /><path
     style="fill:#1f5e54;fill-opacity:1;stroke:none;stroke-width:10.7818"
     d="M 5.567209,0 6.3609277,0.79109854 5.567209,0 M 0.01117829,8.7020841 V 13.448675 H 5.567209 c 0.4558391,21.894971 28.724597,20.105487 34.129903,38.76383 L 34.141081,49.839209 C 39.955891,69.33667 52.194402,39.788988 61.921235,46.674815 50.769374,52.440868 47.542042,64.151893 34.141081,67.243377 36.412065,55.051315 28.423857,45.415378 15.885552,52.145968 6.1433844,57.375577 0.0183356,68.338019 0.01117829,79.109856 7.8506165,77.083124 10.782422,74.157475 15.885552,68.034476 c 2.761371,7.65271 15.508591,2.368878 22.224123,2.373296 -7.35039,9.859664 -25.252639,2.706195 -27.780154,16.613069 l 23.777265,-7.99645 6.69394,-7.835299 10.563927,-5.674407 13.731456,-13.30218 C 64.89059,50.212668 64.517649,48.519102 63.667292,46.673608 56.652676,31.450054 48.837917,45.073232 41.284551,50.630308 40.862983,30.906416 14.120634,30.010901 7.1546464,13.448675 14.763208,11.69345 23.513176,7.8879055 26.203895,0 L 8.7420837,8.7020841 18.266708,0.79109854 C 10.970763,-2.2238782 7.765222,8.6747791 0.01117829,8.7020841 M 27.791331,0 c 1.669567,7.1929178 0.285728,18.177304 3.4272,24.521013 4.110216,8.29992 12.456897,4.969716 14.828331,-2.370254 l 11.90578,4.746593 C 59.574275,14.108367 53.543589,0.969511 38.903393,0 c 1.113367,7.2018263 -3.035959,17.089255 5.556031,20.568563 -3.97864,4.986373 -8.829127,3.059036 -11.542605,-2.3739 C 30.25313,12.861435 36.238116,1.4008152 27.791331,0 M 57.158923,0 V 0.79109854 H 73.033297 L 57.158923,0 M 73.827016,0 C 66.650073,6.9414021 60.457089,8.292653 59.540079,19.777464 h 0.793715 C 62.771405,14.117493 66.109719,9.7256741 72.239578,7.9109856 L 65.096109,31.643943 46.84058,30.852844 c 3.000599,8.510876 11.396566,0.927064 17.210099,4.768561 2.449444,1.618555 2.460042,6.144509 3.501306,8.680114 2.043497,4.976186 5.448932,8.688323 10.243624,11.07538 v 0.791094 C 67.443681,58.624464 55.783844,57.438879 60.333799,72.781067 H 72.239578 C 68.4798,75.803359 62.895126,78.52334 57.952642,76.82934 54.206992,75.545543 51.158285,71.499733 46.84058,72.364756 c -9.339656,1.871133 -6.39059,12.322999 -12.155044,16.096663 -2.106304,1.378882 -5.299196,0.931801 -7.687922,0.932719 -4.402043,0.0017 -9.516347,-0.665981 -13.48097,1.653006 -4.7106404,2.755349 -7.9864453,11.726816 -3.187123,15.751166 -0.9213061,-10.491174 9.523923,-11.866482 17.46181,-11.866482 -3.595015,4.695299 -6.352999,11.126192 -11.90639,13.877792 -4.886083,2.42097 -6.7579206,-1.99859 -11.107776,-1.85994 -5.24301111,0.16711 -4.76560016,7.43344 -4.76598671,10.924 h 0.79371866 c 6.01967115,-7.81895 8.44493625,-0.65892 15.87437405,-2.89275 5.628787,-1.69242 8.350999,-7.98117 11.90578,-12.13812 l 1.587437,7.91099 c -9.486044,4.47273 -18.742097,10.37633 -22.2241229,20.56856 H 8.742084 C 13.995928,123.0884 23.778975,117.76987 31.759926,112.336 l 13.689196,21.35966 -12.895478,17.40416 c 4.22777,-1.20228 16.454718,-2.37227 19.2538,-5.22393 3.939018,-4.01301 -0.04579,-11.12109 -1.019091,-15.34463 -1.354204,-5.87656 0.522084,-14.23811 0.02084,-20.56856 11.569223,2.23622 26.880057,-0.13196 31.748747,-12.657577 -8.421943,5.528447 -33.268311,17.575647 -33.336203,-1.582198 h -0.793719 l -0.793719,6.328785 -7.143468,-9.493179 5.556031,-1.582197 c -1.477352,-4.544459 -3.645477,-4.955628 -7.937187,-3.164394 1.14147,-4.782129 4.399428,-7.437601 8.730905,-9.493183 0.02226,8.042188 2.864538,15.466982 11.112062,18.195267 l 1.587437,-13.448675 h 1.587438 c -0.967955,7.633807 1.696056,19.008201 11.894141,12.101493 4.238637,-2.870642 5.86853,-7.935563 9.536263,-11.310395 0.84619,6.232569 3.264885,10.664018 9.524625,12.657577 l 2.381155,-7.910985 3.174875,3.955492 h 1.587437 C 103.45876,82.272729 102.44584,76.91799 97.638576,67.243377 H 96.844857 L 100.81345,87.020841 89.701389,72.781067 c -2.935315,7.083384 3.592202,11.258863 3.968593,18.195267 -5.980976,-2.84435 -8.671306,-6.886393 -8.730906,-13.448675 -4.826749,1.724951 -6.144524,6.72721 -9.662425,10.135347 -3.146612,3.048438 -16.091423,4.865432 -12.453296,-2.838436 1.287431,-2.726173 5.517034,-3.151007 7.828785,-4.687986 6.371436,-4.236028 16.57385,-12.855617 16.668093,-20.804192 -10.310653,5.911946 -14.377595,7.127661 -26.192716,7.119887 6.42686,-5.69225 17.199077,-0.250623 17.46181,-11.07538 12.65341,-0.112745 12.528519,-9.855536 19.454071,-17.153305 2.975902,-3.135833 12.039612,-4.781405 16.263272,-4.997455 0.13878,6.49385 2.77456,11.848976 9.52463,13.448676 l 2.38115,-7.910986 3.17488,3.955493 h 1.58743 l 2.38116,-11.866478 c 10.10795,2.391886 16.67234,-4.121521 23.81156,-10.232399 3.68594,-3.155028 7.11426,-4.427285 7.93718,-9.545065 l -12.6995,4.96817 -14.28693,-1.01268 c 6.75041,-7.8203073 17.19588,3.071228 19.84296,-9.4931834 -8.17646,2.9647124 -18.96082,-3.787703 -21.1695,8.7020844 -0.36719,2.07632 -0.25952,4.229727 -0.26092,6.328789 l 12.69949,1.582196 v 0.791095 c -9.35381,2.659028 -14.88958,4.619779 -21.43038,-3.955486 -2.92443,6.95497 2.39293,10.868408 3.9686,17.404169 L 121.45014,22.941858 c -3.74314,6.237868 3.09825,11.66728 3.17486,18.195268 -6.57323,-3.79753 -6.86427,-7.726949 -8.73089,-14.239774 L 98.432294,31.643943 C 96.485373,24.805821 94.255268,17.531036 87.320233,14.239774 84.443892,23.264643 83.218841,34.517589 95.25742,36.390534 89.751238,53.577251 72.248304,52.074628 67.477266,35.599435 L 83.35164,45.883717 C 79.775358,39.012665 72.896671,34.552306 65.889828,31.643943 67.5237,25.907585 70.213498,11.504005 74.961864,7.8621455 79.066806,4.7137577 87.153855,5.7957481 92.082546,3.9554928 c 0.226061,10.9160162 6.16366,22.5138612 19.049244,18.1098032 4.93199,-1.685672 8.09173,-5.341219 11.90579,-8.616621 v 7.119888 h 0.79366 L 130.97476,0 c -3.51563,0.56664651 -4.84803,2.4292578 -6.34976,5.5376899 h -0.79376 C 122.43162,2.0644418 121.38175,0.30197326 117.48154,0 c 0.80274,2.5778061 3.32602,5.9426065 2.66655,8.6990422 C 117.40343,20.170937 92.75715,19.705979 94.091948,6.3629741 94.360048,3.6829974 97.609781,1.9092303 99.226013,0 H 73.827016 m 38.098494,2.3732957 c -9.88353,-5.8731005 -5.7648,9.5276103 0,0 M 138.11823,0 c 3.61341,4.4293601 10.48966,5.7045623 13.49322,0 h -13.49322 m 22.22412,0 c 4.68272,10.611121 13.92355,13.448675 24.60529,13.448675 0.0583,21.109498 26.77521,21.277385 34.1299,38.76383 l -4.76232,-2.373296 h -0.79377 c 0.9657,4.766436 5.2966,9.130153 10.28709,5.851445 5.95093,-3.909719 9.02167,-15.060447 17.49306,-9.015839 -11.4138,5.004312 -14.39834,17.407886 -27.78015,20.568562 0,-4.05339 0.68491,-8.892277 -1.34,-12.583097 -4.59395,-8.373217 -15.98516,-4.090304 -21.64661,0.463892 -5.10937,4.110101 -7.03792,13.835871 -12.2469,16.812076 -8.63393,4.933092 -12.25577,-12.583267 -13.18333,-17.350451 h -0.79367 c -3.9025,14.898813 -12.09632,4.394208 -19.04924,0 0.0324,11.32267 9.41196,15.035652 0,25.315153 1.40817,-11.105505 -1.27434,-21.284767 -12.69951,-26.106248 l -1.58743,5.53769 c 9.25192,6.099725 17.89036,16.262087 8.7309,26.106252 l 1.58744,-10.28428 h -0.79376 c -2.25218,14.987355 -12.29614,16.933837 -25.39895,14.239774 4.80983,-4.362185 8.65669,-5.931056 15.08065,-4.746592 2.01604,-5.884134 -1.68212,-7.432942 -7.14346,-5.432091 -4.46573,1.636083 -7.31495,4.970813 -8.73091,9.387584 l -3.17488,-0.791095 v 0.791095 l 2.38115,1.582196 c -4.46112,-1.260136 -9.15459,-8.882669 -6.98913,-13.448071 4.73388,-9.980304 19.87141,-10.420349 25.02358,-0.791099 1.45334,2.716239 1.74412,5.687663 1.80853,8.701481 h 0.79377 c 0.36076,-8.506724 -0.002,-16.320875 -6.49618,-22.795966 -7.88862,-7.866008 -21.39644,-10.789606 -22.07775,-23.878849 h -0.79371 c 0,13.830415 5.62569,15.895268 14.28693,25.315154 -13.18307,0.681615 -17.82678,14.378351 -13.07125,25.315154 4.42423,10.174868 15.15745,15.492091 21.20686,24.524051 2.81869,4.20841 3.72875,8.46263 3.77017,13.44868 h 0.79377 c 0,-8.59143 -0.69744,-14.80795 -5.55604,-22.15076 l 7.14347,-1.5822 c 10e-4,9.62619 5.77869,30.93174 15.87744,34.81262 5.75344,2.211 11.38318,-0.2183 16.66502,-2.37757 -0.9105,5.98842 -5.97645,10.33315 -6.90461,16.61306 -2.4084,16.29509 11.75176,24.52406 25.95387,24.52406 0.0551,19.75679 25.09408,22.7753 34.1299,37.97273 l -5.55604,-1.5822 c 0.99141,4.89363 5.25075,8.9804 10.2871,5.74157 5.90999,-3.80068 9.12801,-14.8287 17.49306,-8.90596 -11.66421,5.11408 -14.82971,17.39789 -28.57387,20.56856 3.82853,-12.90977 -6.11988,-21.53614 -18.25553,-14.88438 -8.46653,4.64066 -9.09389,13.60146 -15.5951,19.14141 -4.94371,4.21275 -11.15428,-5.1503 -12.15076,-9.00362 -0.67163,-2.59714 -1.10952,-5.27854 -1.62173,-7.91099 h -0.79367 c -3.90797,14.91972 -12.07283,4.20346 -19.04925,0 l 5.51929,16.61307 -4.72557,8.70208 h -0.79377 c 1.37887,-10.87449 -1.18214,-21.65897 -12.69951,-26.10624 l -1.58747,5.53769 c 9.4406,5.88555 17.80436,16.3545 8.7309,26.10625 l 1.58744,-10.28428 h -0.79376 c -3.0913,14.73857 -11.7357,16.88073 -25.39901,14.23977 4.6635,-4.22947 8.78878,-6.23545 15.08065,-4.7466 l 1.58745,-5.53768 c -7.73316,-2.2774 -15.02446,1.89033 -17.46181,9.49318 l -3.17488,-0.79115 v 0.79115 l 2.38115,1.5822 c -4.39768,-1.26157 -9.12435,-8.94498 -6.98913,-13.44807 4.82544,-10.17663 19.81241,-10.49374 25.13381,-0.79115 1.46188,2.66549 1.63659,5.73753 1.6983,8.70148 h 0.79377 c 0.3471,-8.07901 0.30671,-15.72974 -5.70302,-22.07934 -8.0534,-8.50875 -21.67752,-11.05742 -22.87086,-24.59546 h -0.79371 c 0,12.43884 3.94147,17.56676 14.28693,24.52405 -2.74094,0.77704 -5.53634,1.44159 -7.93412,3.04902 -21.086439,14.1359 6.20726,34.43224 14.53741,45.20799 2.62699,3.39821 4.11545,6.99504 5.30249,11.07538 h 0.79377 c -0.0184,-6.63951 -1.6713,-11.96539 -5.55608,-17.40412 l 7.14347,-1.5822 c 6.4e-4,5.85555 0.16243,14.6324 5.92716,18.1733 5.58229,3.42879 19.31454,0.8131 25.82158,0.8131 1.93238,-7.08751 9.80287,-15.22531 3.62441,-22.85882 -2.93124,-3.62159 -11.50682,-4.26547 -12.79443,-8.86814 -1.81015,-6.47063 6.48771,-6.53811 9.96374,-4.66357 -0.0119,-14.68943 -11.4964,-4.45036 -12.55251,4.74659 -1.25997,10.97208 17.10768,9.59451 15.41688,18.65064 -0.50584,2.70929 -3.70143,5.24562 -5.24552,7.45561 h -0.79376 c -5.49877,-9.84425 -16.03083,-19.45554 -14.28694,-31.64394 h -0.79377 c -4.57304,14.41353 5.9964,22.68699 11.11206,34.80834 l -9.52462,1.5822 c 1.31277,-10.58433 -2.37502,-21.94683 -14.28693,-23.73297 6.07852,-10.29629 17.18222,-15.04933 17.4618,-28.47954 5.49281,-0.0162 9.40814,-1.03893 11.90579,-6.32879 h 0.79366 c 0.44927,5.48164 4.23982,9.91889 4.74639,15.03087 0.6199,6.25615 -3.13316,15.77251 0.6051,21.28519 7.63499,11.25911 17.67917,0.75369 12.65173,-9.41567 -2.70161,-5.46501 -9.3393,-6.83429 -11.65334,-12.66065 l 6.34976,2.37329 -0.79367,3.16439 h 0.79367 l 0.79377,-3.95548 c 7.51694,-0.0667 12.18003,-3.39238 15.08065,-10.28429 h 0.79377 c 4.01949,7.29987 15.68076,2.36844 23.01785,2.3733 -8.40231,10.10669 -23.7262,2.68557 -28.57388,16.61307 l 23.7993,-7.88659 6.67128,-7.47026 9.99744,-5.38018 15.09229,-14.86241 c -0.56384,-1.95093 -1.25933,-3.73266 -2.21089,-5.5383 -6.99727,-13.27727 -14.93557,-2.03669 -21.60067,4.7472 -1.10878,-13.51224 -12.2387,-17.16139 -22.22412,-23.62613 -3.36705,-2.17989 -11.21198,-7.15886 -10.90873,-11.85916 0.18792,-2.91171 5.64352,-3.77717 7.73386,-4.84608 4.87838,-2.4946 8.73206,-5.76762 10.31833,-11.09004 h -0.79377 c -4.17414,5.38726 -10.54611,7.15351 -16.6681,9.49319 4.52635,-6.27159 11.03074,-9.03115 18.25554,-11.07538 0.67703,4.56888 2.76186,8.81117 3.10323,13.44867 0.32528,4.41822 -1.08663,10.17261 1.11768,14.2056 4.38324,8.01955 12.10002,3.03444 14.82834,-3.13022 l 11.11206,5.5377 c 1.7762,-7.43586 1.22105,-15.78885 -4.79661,-21.19119 -4.60187,-4.13131 -10.1556,-5.66938 -13.45893,-11.24386 l 5.55604,-6.32879 c -5.0021,2.32662 -15.71778,4.23737 -17.78947,-3.19918 -0.85921,-3.0842 0.67195,-6.41166 1.12137,-9.4584 l 3.17488,3.9555 h 1.58744 c 3.23805,-9.55549 4.84588,-17.05293 -2.38116,-25.31516 -2.43302,6.86577 3.0486,12.21012 3.96859,18.98637 l -11.1121,-13.44868 c -3.48663,7.26457 4.241,11.01604 3.17487,18.19528 -5.26802,-3.61655 -7.87822,-6.95564 -7.93718,-13.44869 l -14.28694,11.29819 -15.87436,-2.5961 c 2.43965,-8.68354 11.98803,-18.10253 17.46181,-25.31516 h 0.79376 c 9.28265,10.75531 16.04771,-3.06053 22.22412,-8.70208 0.28694,14.3975 -17.3246,14.58807 -20.63667,28.47955 h 0.79376 c 4.55668,-8.7538 15.14122,-12.50342 22.22413,-18.98636 l 14.05849,21.35966 -13.26478,17.40416 c 4.63057,-1.25977 16.08937,-2.20791 19.43509,-5.22393 4.98373,-4.49258 -0.21966,-11.29463 -0.91926,-16.13573 -0.96818,-6.69985 1.81295,-12.85145 -0.26027,-19.77746 12.42864,2.33398 26.53839,-0.0829 32.54247,-12.657577 -9.60413,5.907227 -33.33401,17.465917 -33.33619,-2.373295 h -0.79377 l -0.79377,6.328792 -7.93718,-8.702089 5.55602,-0.791095 -0.79366,-5.537689 -7.14346,0.791094 c 2.49809,-3.917263 4.99814,-7.168171 9.52462,-8.702084 9.2e-4,8.33489 2.25338,15.572774 11.11206,18.195267 l 3.17487,-13.448675 c -1.67061,6.993815 0.79982,17.822771 10.30672,12.721059 5.14733,-2.76223 7.53967,-8.406448 11.12369,-12.721059 0.13759,6.404777 2.88484,11.874227 9.52462,13.448675 l 2.38115,-7.910985 4.76233,3.955492 c 2.87764,-10.056522 4.63553,-16.402692 -2.38125,-25.315154 l 3.17487,19.777464 h -0.79365 l -9.52469,-14.239774 c -3.72875,6.213774 3.01835,11.711327 3.17488,18.195267 -5.59856,-3.234407 -8.14751,-7.010111 -7.93719,-13.448675 -5.29699,1.517568 -6.61061,7.213571 -10.54802,10.654191 -3.2214,2.814957 -15.50305,3.643163 -12.03927,-3.48853 1.32355,-2.725124 5.91317,-3.243726 8.30035,-4.768561 6.05495,-3.867639 16.58111,-13.270046 16.66809,-20.592367 l -12.69949,7.285914 -13.49322,-0.166022 c 5.82112,-7.135581 16.90881,0.777413 17.46181,-11.075381 12.23394,-0.286686 12.66231,-9.620436 18.92431,-17.153305 3.81253,-4.586285 8.76273,-1.165039 8.85584,-8.952947 l -8.7309,2.373296 c -1.44167,-7.405203 -3.94462,-12.916843 -10.31835,-17.404169 -3.76009,8.710583 -3.97376,20.926908 7.93719,22.15076 -7.62038,17.598805 -21.18265,14.683632 -28.57388,-0.791095 l 16.6681,10.284282 -16.49968,-15.199338 2.52938,-10.115816 4.89275,-12.2113768 17.80845,-4.4016928 c 0.006,9.8019156 2.99045,18.7216436 14.28694,18.9863656 V 17.404168 C 275.89808,16.519736 268.42492,6.8266774 278.60644,0.79109854 V 0 h -24.60528 -0.79377 c -7.50536,6.601477 -14.18761,7.971076 -14.28694,19.777464 h 0.79377 c 1.52647,-6.019307 5.3376,-9.726954 11.11207,-11.8664784 l -6.34975,23.7329574 -18.25553,-0.791099 c 1.99829,6.864822 12.44484,3.955493 18.25553,3.955493 0.62616,7.640614 4.05358,17.109485 11.90577,19.777464 v 1.582196 c -4.03342,0.957107 -8.87122,-0.154752 -12.6652,1.378315 -5.92171,2.392851 -4.79661,10.134647 -4.79661,15.234755 H 251.62 v 0.791095 c -4.19178,1.736664 -8.76161,4.61485 -13.49322,3.502561 -4.1264,-0.970018 -7.43235,-5.420478 -11.90577,-4.729499 -9.95977,1.538404 -6.44091,12.321853 -12.15811,16.116195 -8.34841,5.540599 -26.03731,-4.998445 -26.6992,12.008101 -0.094,2.42173 0.31772,4.75179 0.75877,7.11988 h 0.79377 c 0.26146,-11.086228 8.98465,-12.657572 18.25552,-12.657572 -5.37829,6.289372 -12.991,21.773322 -22.22411,11.075382 l -18.25555,20.56856 c -1.28043,-8.85334 6.83149,-16.43046 3.37944,-25.3121 -2.1597,-5.556606 -14.06564,-6.302329 -14.24836,-11.903103 -0.20163,-6.180481 6.44323,-5.880549 10.0752,-3.921923 -0.0108,-14.300661 -11.49825,-4.124103 -12.5519,4.746591 -1.35548,11.411875 16.77784,9.198984 15.51976,18.650025 -0.37517,2.81855 -3.70634,5.29199 -5.34901,7.45623 h -0.79376 c -5.55334,-9.94203 -16.05431,-19.291178 -14.28689,-31.643944 h -0.79377 c -3.8004,14.640851 5.25519,22.468604 11.11206,34.808334 l -9.52463,1.5822 c 1.24041,-10.46816 -2.43696,-21.95482 -14.28693,-23.732957 6.18622,-10.240162 17.34885,-15.060254 17.4618,-28.479548 5.18739,-0.01485 9.17469,-0.751968 11.90579,-5.53769 1.99849,4.628511 2.27412,10.134526 7.14346,12.657576 -3.1781,6.075052 -4.60868,21.031373 1.62235,25.589849 9.37903,6.86148 13.87154,-4.37946 10.03112,-12.138119 -2.72009,-5.495356 -9.55934,-6.648543 -11.65343,-12.660631 l 6.34976,2.373296 -0.79367,3.164394 h 0.79367 l 15.87437,-14.239774 h 0.79378 c 4.05209,7.53265 15.55022,2.372475 23.01784,2.373296 -8.09978,10.286743 -23.70901,2.738884 -28.57387,16.613069 l 23.79924,-7.635689 6.67128,-7.720527 11.52242,-6.806759 13.56732,-12.645361 c -0.3568,-1.994984 -0.90022,-3.706344 -1.80486,-5.538897 -6.80329,-13.781382 -14.94642,-3.22859 -22.00671,3.9567 C 219.49506,36.373102 207.11749,33.0091 196.85341,26.0324 194.1009,24.16146 186.23922,18.570126 187.6638,14.47905 c 0.83842,-2.407795 5.56972,-3.140736 7.60218,-4.180114 C 199.93575,7.910889 203.33188,4.714989 205.58431,0 L 188.1225,8.7020841 197.64713,0.79109854 V 0 C 190.0788,0.0266532 190.48231,4.6819621 184.80126,7.889016 182.04139,9.4470224 178.35662,8.2805096 175.423,7.910985 175.41082,3.6791104 175.58431,0.39134849 170.6607,0 L 173.83557,6.3287885 160.34235,0 m 23.81156,0 0.79377,0.79109854 L 184.15391,0 m 23.01784,0 c 0.98179,6.6510172 0.34753,19.646371 3.4272,25.280969 4.42883,8.102941 12.0877,3.075284 14.82834,-3.13021 l 11.11206,5.53769 C 239.65158,14.659538 232.1673,0.43432194 217.4901,0 c 1.78743,7.3233593 -3.16647,17.266484 6.34974,20.568563 -3.90823,4.898133 -9.51338,3.415981 -11.89843,-2.376338 -2.04678,-4.97073 0.44584,-10.6968028 -1.14403,-15.701742 C 210.18462,0.56150426 208.95796,0.30914354 207.17175,0 m 29.3676,0 V 0.79109854 H 251.62 L 236.53935,0 m 48.41684,0.79109854 0.79377,4.74659136 -0.79377,-4.74659136 M 103.98833,13.448675 h 0.79371 L 115.89411,9.4931828 C 112.283,5.0130994 97.401693,5.3824542 103.98833,13.448675 m 23.01785,-3.164394 3.96858,-0.7910982 -1.58743,3.9554922 c 3.11153,-0.979384 6.05519,-1.465348 7.14346,-4.7465909 -4.05548,-1.3643118 -7.67196,-3.4244562 -9.52461,1.5821969 m 153.18769,0.791099 3.17488,2.373296 c 4.8608,-4.7487647 -1.15488,-9.3108115 -3.17488,-2.373296 M 46.84058,15.821971 c -11.671346,-3.465112 -0.277041,-12.8939793 0,0 m 179.38043,0 c -12.0487,-2.424912 -0.61709,-13.2350633 0,0 M 50.015455,10.284281 c 3.883071,3.013359 6.373493,6.158199 7.143468,11.07538 -5.599661,-2.323634 -10.340137,-4.444377 -7.143468,-11.07538 m 178.586705,0 c 4.44398,2.616048 6.74246,6.10832 7.93719,11.07538 -5.30955,-1.925792 -10.62077,-4.699828 -7.93719,-11.07538 M 23.02902,18.986365 h 0.793715 l 3.174879,-4.746591 c -5.039338,-2.891103 -8.357717,0.475051 -3.968594,4.746591 m 144.45681,-7.119886 c -1.2943,4.407052 1.51849,7.718063 0.76428,11.866478 -3.3933,18.665174 -14.22476,28.337132 -33.30679,22.15076 3.74634,-3.405916 7.72671,-6.039442 12.6995,-7.309116 5.61789,-1.434373 11.49907,2.094572 12.69949,-5.348462 -16.95548,-3.137306 -30.42992,9.07226 -35.71734,24.524056 3.08899,-2.612885 5.35487,-8.833902 9.53628,-9.758097 2.93773,-0.649312 6.73926,2.257605 9.51297,3.081368 7.97831,2.369457 14.36444,0.91587 20.63669,-4.398651 2.23419,9.598033 11.9167,18.503976 21.05926,9.865531 10.50925,-9.92975 7.00817,-28.616749 -5.9786,-34.389587 -4.74274,9.76679 -1.59279,20.462433 10.31834,20.568563 -2.85894,9.683594 -20.0923,18.066395 -22.76981,3.164395 -0.78049,-4.343897 5.47925,-9.873112 6.61678,-14.239774 1.74225,-6.687883 -1.24936,-12.36461 -1.30875,-18.986366 h -0.79373 v 3.955493 h -0.79365 l -3.17492,-4.746591 m 30.95502,4.746591 c 3.94296,1.852978 5.66513,1.381743 7.93719,-2.373296 -3.91056,-2.328656 -6.17892,-1.999837 -7.93719,2.373296 m 57.14775,0.791094 c -1.99227,3.05445 -2.55328,5.051437 0.79366,7.119887 -3.46809,5.797801 1.40395,9.349004 4.76231,3.164394 l -3.96854,-2.373291 v -0.791099 l 3.17487,-3.164394 v -0.791098 l -4.7623,-3.164395 m -181.761584,5.53769 c 2.400994,2.355044 1.63903,4.061623 0.793718,7.119887 l 4.762312,2.373296 c 1.62597,-2.806603 2.279567,-4.579574 -0.793719,-6.328788 l 2.381157,-6.328789 c -3.816174,-1.492557 -5.762532,-0.749815 -7.143468,3.164394 m 14.286936,-3.164394 7.937186,11.07538 C 90.375946,30.269732 84.017749,25.763141 88.113952,19.777464 m 179.380418,0 7.14347,11.07538 c -5.40094,-0.971611 -11.94112,-5.495296 -7.14347,-11.07538 M 0.01117829,22.150759 C 0.09294089,29.031927 5.6052659,32.03995 9.5358025,37.181632 L 0.01117829,33.226139 C 0.09998351,40.720693 4.4650851,42.222737 11.12324,43.510421 7.5694257,49.487551 0.09510005,53.065263 0.01117829,60.123491 c 17.16494071,-5.46367 16.01147071,-31.790198 0,-37.972732 M 157.16748,27.688449 c 9.91062,5.697755 4.26867,-10.617012 0,0 m 14.28692,-3.955492 c 2.12932,6.756037 -0.69246,11.025357 -6.34974,15.030872 l 6.34974,-15.030872 m 7.9372,3.955492 9.52463,9.493183 c -5.03704,-0.261003 -11.98339,-3.409899 -9.52463,-9.493183 m -139.694488,11.866479 4.762312,2.373295 2.381156,-5.537689 c -3.816171,-1.492556 -5.76253,-0.749815 -7.143468,3.164394 m 182.555298,2.373295 c 8.95453,-6.881045 -7.86263,-7.652009 0,0 m 61.91006,-3.955492 0.79376,12.657577 H 285.75 L 284.16247,37.972731 M 17.47299,41.137126 c -3.378914,5.83848 2.560616,8.600323 4.762312,2.373295 L 17.47299,41.137126 m 184.14273,2.373295 c -9.91063,-5.697755 -4.26865,10.616964 0,0 m -104.770863,1.582197 -2.381156,3.164394 v 0.791095 l 3.968593,2.373299 -3.174874,5.53769 c 3.825245,2.194328 5.85232,1.488669 7.93719,-2.373295 l -3.968597,-1.582198 3.174867,-5.53769 -5.556023,-2.373295 m 176.999253,4.746591 3.17489,1.582197 c -2.66364,6.147503 2.33627,10.025909 4.7623,3.164395 l -3.17486,-1.582198 c 2.6891,-6.209693 -2.29864,-10.147563 -4.76233,-3.164394 m -155.56885,3.164394 c 3.7538,1.465083 5.97428,0.849306 7.14347,-3.164394 -3.7538,-1.465082 -5.97429,-0.849353 -7.14347,3.164394 m -85.721616,9.493183 c -6.218727,2.300023 -12.238733,8.044228 -16.668092,0 -4.175795,5.37683 -6.2229628,9.213324 -13.4932176,10.284281 2.370218,-7.413651 9.0065826,-14.588897 16.6680916,-16.669828 5.713421,-1.551802 12.19308,0.100535 13.493218,6.385547 m 179.380416,0 c -5.92176,1.736153 -13.14003,8.579586 -16.66808,0 h -1.58745 c -2.20514,6.441438 -5.76505,9.677052 -12.69949,10.284281 4.22551,-9.007727 24.78956,-28.196792 30.95502,-10.284281 M 109.54435,57.750195 c -7.05719,7.675476 -16.626685,0.452791 -21.430398,11.866478 6.000389,-3.247251 22.145548,-2.768507 21.430398,-11.866478 m 175.41184,3.164395 c -7.57003,2.230203 -14.58636,-0.940595 -17.46182,8.702083 h 0.79376 c 3.66916,-3.930433 18.96391,-2.786638 16.66806,-8.702083 m -124.61384,7.910985 c -7.15827,8.747906 9.22235,5.768539 0,0 m 124.61384,1.582197 c -2.00576,6.306481 -1.78619,11.860056 0,18.195267 h 0.79377 l -0.79377,-18.195267 m -168.26837,1.582197 c -2.76032,3.590291 -2.47387,5.720158 1.58744,7.910986 l 3.17488,-4.746591 -4.76232,-3.164395 m -68.259802,5.53769 c 5.301847,3.358427 9.349926,7.037465 10.318342,13.448675 C 53.714144,89.271252 47.215058,83.372767 48.428018,77.527659 m 179.380422,0 c 5.17399,3.522595 9.18168,6.873816 9.52462,13.448675 -4.76556,-2.089417 -11.57516,-7.541485 -9.52462,-13.448675 M 0.01117829,85.438644 3.186053,98.88732 0.01117829,98.096221 c 0.0164566,1.383928 -0.1172474,7.036389 2.81353671,5.398509 C 8.7417159,100.18799 4.4733669,87.751041 0.01117829,85.438644 M 182.56647,98.096221 l -0.79376,0.791094 c -5.82516,-1.684122 -12.04346,-4.807908 -10.31831,-11.866474 5.48575,2.073013 9.1742,5.548748 11.11207,11.07538 M 103.19461,87.81194 c -1.61362,9.067334 1.7192,16.18416 10.31833,19.77746 1.52374,-6.68903 -4.04517,-7.10998 -7.41906,-11.878075 -1.72996,-2.444829 -1.7607,-5.274392 -2.89927,-7.899385 m 178.58669,0 c 0,5.441192 -0.34028,11.076333 3.9686,15.03087 l -3.9686,-15.03087 m -147.63166,7.119888 -9.52464,7.910982 h -0.79376 l -10.31835,-9.49318 0.79377,-3.164395 19.84297,4.746593 M 38.109675,94.140729 c 1.770828,6.112661 6.47587,9.129101 9.383762,14.374061 2.616634,4.71962 3.228805,14.58166 1.7283,19.64317 -7.230785,-5.52818 -16.210881,-15.44831 -13.493218,-24.52405 h -0.793718 l -3.174875,3.1644 c -1.701483,-6.42869 -0.242249,-10.111849 6.349749,-12.657581 m 178.586705,0 9.91045,14.465621 1.99533,19.55161 c -8.43183,-4.93772 -16.11838,-16.11629 -13.49321,-25.31515 h -0.79378 l -1.58739,3.9555 h -1.58743 c -2.48733,-6.48578 -0.66593,-9.489735 5.55603,-12.657581 M 97.638576,100.46952 c -5.273211,4.55328 -10.06551,2.39175 -15.842527,4.92727 -6.564753,2.88126 -8.396304,15.08571 -0.02878,16.77055 12.310342,2.47874 31.770211,-16.23862 41.270311,-4.29366 -12.91587,0 -22.59451,6.97726 -34.923626,9.28687 -4.739223,0.88779 -10.846791,1.79487 -14.819756,-1.71831 -4.068808,-3.59792 -4.19486,-9.12309 -5.81693,-13.89735 -9.479395,4.24617 -11.65632,17.69612 -6.243795,26.1032 2.451129,3.80726 6.567308,5.38715 9.418669,8.70515 h -6.349749 c 1.226434,7.6265 6.47653,5.92921 11.90578,3.16438 l 0.793715,3.9555 h 0.793714 v -5.53769 l 10.318343,0.79115 v 1.5822 c -9.993633,2.36588 -19.099519,11.75216 -30.161301,8.20819 -3.458022,-1.10786 -5.911494,-3.71646 -8.730905,-5.83495 2.151648,11.88363 14.712861,13.97678 24.605279,10.28429 -7.388484,7.14601 -13.77238,8.65445 -14.286937,20.56855 h 0.793715 c 1.817542,-6.1864 5.548713,-10.77564 11.905784,-12.65758 L 65.096109,194.61025 46.84058,193.8191 c 3.013241,8.54673 11.359972,0.84486 17.118235,4.76856 6.663041,4.54026 3.474693,16.06521 13.836794,18.9644 -3.79573,3.5449 -8.149308,1.35577 -12.667653,2.77983 -6.103117,1.92357 -6.281267,10.40099 -4.794157,15.41544 h 11.905779 v 0.79115 c -4.21505,1.74628 -8.739831,4.44635 -13.493218,3.35482 -4.028046,-0.92494 -7.541907,-5.79536 -11.90578,-4.76366 -8.945691,2.1149 -6.516792,11.25391 -11.559754,15.85248 -1.922712,1.75327 -5.09249,1.37434 -7.489495,1.37832 -4.263763,0.007 -9.564799,-0.83129 -13.490154,1.15246 -5.1825974,2.61911 -9.1967624,11.87034 -3.971656,16.25171 -0.9213061,-10.49119 9.523924,-11.86648 17.46181,-11.86648 -5.239256,6.79365 -13.405298,21.92494 -22.224122,10.28428 -4.96626135,3.52844 -5.55539168,6.88708 -5.55603071,12.65758 h 0.79371866 c 5.52756645,-7.76589 7.97052595,-1.29525 15.08065505,-2.80731 5.91791,-1.25852 9.91244,-7.77296 11.905779,-13.01466 h 0.793716 l 0.363794,7.54411 -15.444446,11.44226 v 0.79115 c 7.48378,-0.17954 12.391682,-5.50079 18.255531,-9.49324 2.037176,6.12177 5.460781,9.47044 11.90578,9.49318 -6.186846,-9.01821 -10.007927,-10.65301 -6.34975,-21.35966 h -0.793714 l -4.762312,6.32879 c -1.088509,-6.54419 0.382273,-9.21917 6.34975,-12.65758 l 9.732851,15.82501 3.760366,11.86344 -0.793715,-11.86648 c 11.959275,2.21292 26.34619,-0.41667 31.748747,-12.65758 -8.399476,5.51372 -33.268893,17.4055 -33.336183,-1.58219 h -0.793728 l -0.793719,5.53769 -7.143468,-8.70209 5.556031,-1.5822 c -1.467525,-4.51472 -3.495621,-4.76232 -7.937187,-3.95548 l 8.730905,-9.49319 c 0.0054,8.19847 2.540179,16.08194 11.112062,18.98637 l 1.587437,-13.44868 h 1.587438 c -0.96775,7.63219 1.839434,18.6905 11.874545,11.96233 4.242367,-2.84437 5.782105,-7.94957 9.555859,-11.17123 0.81189,5.97507 3.57805,10.64246 9.524625,12.65758 l 2.381155,-7.91099 4.762312,3.95549 c 4.202097,-10.26381 3.193227,-15.69406 -1.587437,-25.31515 h -0.793719 l 3.968593,18.98636 -11.112061,-13.44867 c -2.915998,7.03679 3.606312,11.24964 3.968593,18.19526 -5.725817,-2.96086 -8.672766,-7.0471 -8.730906,-13.44867 -5.118477,1.51028 -6.493926,7.46411 -10.389998,10.80313 -3.151615,2.701 -15.030042,3.66401 -11.725723,-3.5697 1.326332,-2.90359 6.170159,-3.62607 8.622504,-5.36495 5.937824,-4.21034 15.785114,-12.55128 15.874374,-20.06374 -10.220254,5.6768 -14.530838,7.11988 -26.192716,7.11988 6.377496,-5.64853 17.337537,-0.59535 17.46181,-11.07537 13.23121,-0.28245 12.226419,-10.70243 19.606569,-17.71853 2.917774,-2.77388 12.127444,-4.25038 16.110774,-4.43224 0.13878,6.49385 2.77457,11.84898 9.52463,13.44868 l 2.38115,-7.91099 4.76231,3.9555 2.38116,-11.86648 c 10.07899,2.38502 16.66435,-4.08433 23.81156,-10.14937 3.70504,-3.14407 7.11452,-4.51185 7.93718,-9.6281 l -12.6995,4.96817 -14.28693,-1.01267 c 6.77532,-7.73068 17.20592,3.02361 19.84296,-9.49319 -8.22541,2.55269 -19.01348,-3.48989 -21.1695,8.70208 -0.36719,2.07634 -0.25952,4.22971 -0.26092,6.32879 l 12.69949,1.5822 v 0.79115 c -9.39271,2.55433 -14.87122,4.64393 -21.4304,-3.95548 -2.79951,6.65789 2.12383,11.11084 3.9686,17.40416 l -10.31834,-13.44868 c -3.92399,6.53922 3.639,11.43699 3.17486,18.19527 -6.57323,-3.79749 -6.86427,-7.727 -8.7309,-14.23978 l -17.461786,4.74655 c -1.999168,-7.07389 -4.143539,-13.72518 -11.112061,-17.40418 -2.901846,9.10492 -4.179382,20.33262 7.937187,22.15077 -5.481517,17.10977 -23.036808,15.58851 -27.780154,-0.79115 L 83.35164,208.84997 C 79.729814,201.89145 72.97331,197.55038 65.889828,194.61025 l 7.937188,-24.52406 18.25553,-3.16439 c 0.44275,21.37943 17.654434,22.47481 30.955034,9.49318 v 7.11988 h 0.79366 c 2.26734,-9.49197 3.1435,-19.71033 13.49321,-24.52405 0.64517,5.76934 6.98039,10.58659 12.52986,6.53267 7.84456,-5.7305 3.82608,-20.30742 -3.79895,-23.93683 -3.00511,6.32769 5.40047,12.49815 5.55604,19.77746 -7.35881,0.77069 -10.46856,-1.92435 -12.69951,-8.70209 -8.35209,2.4728 -9.73618,10.76567 -15.87437,15.82197 l -3.17482,-9.49318 c 11.19739,-1.14928 14.15922,-13.96374 23.81155,-18.19527 -0.6457,-2.23416 -1.49517,-4.28493 -2.62979,-6.32819 -9.49952,-17.10702 -16.41987,8.54748 -27.53152,3.9549 5.94849,19.90402 17.57193,-12.57994 26.19272,-2.3733 l -23.01784,18.98637 c -3.54676,-9.6556 -9.51743,-16.07845 -9.52462,-26.89736 h -0.79371 c -2.64148,11.05831 1.82,18.80962 6.34975,28.47956 h -9.52463 c 5.17386,6.12953 13.91538,1.76996 16.80405,12.65758 1.53878,5.79979 -7.44967,9.94869 -12.04175,10.69386 -8.496115,1.37869 -14.106968,-6.22927 -14.286928,-13.85826 16.723988,-3.37287 8.153508,-27.13845 0.793715,-34.80834 10.351073,-4.0026 18.874933,-7.91099 30.161303,-7.91099 0.0259,-3.36019 0.75889,-7.0299 -0.45875,-10.25252 -2.01823,-5.34147 -8.2042,-5.38972 -13.03451,-4.36876 -11.468383,2.424 -21.267665,10.30319 -33.336189,5.9192 5.231638,-4.64805 23.902199,-3.84504 19.842966,-14.23977 m 117.470373,0 v 2.37329 h 0.79376 l -0.79376,-2.37329 m 61.11634,0 c -5.00301,5.70922 -12.89908,1.61387 -17.94258,6.64071 -3.38843,3.37721 -4.39883,11.90651 0.52734,14.37528 7.78589,3.90197 26.83252,-2.48635 26.9399,-11.52281 -9.24437,3.57366 -18.65977,8.34797 -28.57387,4.74659 4.66036,-5.8641 23.75704,-2.9481 19.04925,-14.23977 m -240.496751,0.7911 v 2.37329 h 0.793714 l -0.793714,-2.37329 m 100.008551,1.58219 c 7.32098,3.62908 11.52758,9.15465 11.90578,17.40418 -6.61633,-1.56786 -14.8753,-10.1447 -11.90578,-17.40418 m 114.29549,43.51043 h -6.34975 c 0.80478,7.13667 6.13151,6.22122 11.11206,3.16438 l 1.58744,3.9555 h 0.79376 c 0.2377,-7.27619 5.49504,-7.28941 10.31835,-3.16439 -13.96136,2.48048 -26.79169,17.07235 -38.89222,1.58219 h -0.79377 c 3.01685,12.65358 14.27167,14.59109 25.399,11.07539 -7.87087,6.92298 -14.25322,8.36592 -14.28694,20.56855 h 0.79377 c 1.13809,-6.28535 5.20701,-10.46941 11.11207,-12.65758 l -6.34975,23.73297 -18.25553,-0.79115 c 1.99829,6.86482 12.44482,3.9555 18.25553,3.9555 0.64258,7.84097 4.08931,16.75087 11.90578,19.77746 v 1.5822 c -4.03342,0.95712 -8.87123,-0.15479 -12.66521,1.37832 -5.92171,2.39284 -4.79661,10.13462 -4.79661,15.23475 h 12.6995 v 0.79115 c -3.72578,1.52309 -7.74939,3.78063 -11.90578,3.57763 -4.39006,-0.21441 -7.03774,-3.95946 -11.11206,-4.78565 -8.8302,-1.79054 -12.64432,9.68034 -12.6995,16.23889 -12.90635,1.62573 -32.49087,-1.52572 -27.78016,18.19527 h 0.79377 c 0.55964,-10.72939 9.43998,-11.86648 18.25552,-11.86648 -5.29449,6.1914 -13.09095,21.4978 -22.22411,11.07539 -6.09181,2.15695 -10.50231,10.03577 -12.6995,15.82196 7.02029,-0.22895 8.55,-7.25513 14.28693,-10.28428 7.25661,11.58934 16.52716,-4.22342 21.4304,-8.70208 0.23219,11.65031 -8.55634,11.11822 -15.08065,18.98636 6.78898,-0.20096 12.61536,-5.08443 17.46182,-9.49318 2.64039,5.53851 5.47592,9.41745 11.90577,9.49318 l -8.38734,-12.65758 2.03759,-8.70208 h -0.79376 l -2.38117,6.32879 h -1.58743 c -1.86638,-6.87119 -0.27658,-9.36738 6.34975,-12.65758 l 8.74071,14.37406 2.37135,13.31439 c 3.09032,-2.42653 1.58783,-8.23461 1.58744,-11.86648 10.55836,1.95371 27.93236,-0.0204 30.95502,-12.65758 h -0.79377 c -8.20366,9.17978 -31.74683,14.9935 -31.74874,-2.37329 h -0.79377 l -0.79378,6.32879 -7.93717,-8.70209 5.55602,-0.79104 -1.58742,-6.32879 -6.34976,1.5822 9.52463,-9.49318 c 9.5e-4,8.62613 1.96319,16.07462 11.11206,18.98636 l 3.17487,-13.44867 c -1.6409,6.86936 0.86375,17.90599 10.31835,12.58616 5.05487,-2.84424 7.37284,-8.43454 11.11206,-12.58616 0.14331,6.70463 2.83193,11.46716 9.52461,13.44867 l 2.38116,-7.91099 4.76232,3.9555 c 2.9048,-10.1471 4.7253,-16.32302 -2.38116,-25.31516 l 3.17487,19.77747 h -0.79365 l -9.52464,-14.23977 c -3.74315,6.23782 3.09826,11.66727 3.17489,18.19526 -5.49699,-3.49165 -8.15266,-6.85239 -7.93719,-13.44867 -5.05448,1.44809 -6.62258,6.80893 -10.3306,10.19821 -3.06885,2.80506 -15.90246,4.54438 -12.25669,-3.035 1.34406,-2.79424 5.86835,-3.35008 8.29974,-4.89551 6.04596,-3.8429 16.58196,-13.16221 16.6687,-20.46297 l -12.6995,7.28591 -13.49322,-0.16598 c 5.69868,-7.16527 16.92114,0.4889 17.46181,-11.07538 12.14784,-0.2847 12.68479,-9.64743 18.92431,-17.15328 3.81256,-4.58632 8.76273,-1.16506 8.85585,-8.95298 l -8.73091,2.37331 c -1.80298,-7.45827 -3.68968,-12.73737 -10.31834,-17.40418 -3.76009,8.71059 -3.97378,20.92691 7.93719,22.15077 -7.60941,17.5735 -21.23762,14.6366 -28.57388,-0.79115 l 16.66809,10.28428 -16.49907,-15.19935 2.36219,-9.3247 5.05934,-13.00246 17.80845,-4.4017 c 0.006,9.74265 3.06434,18.72338 14.28694,18.98635 v -5.53768 c -5.18901,-0.71128 -14.20504,-5.00526 -12.75339,-11.78347 0.66104,-3.08676 5.11966,-4.42936 6.65412,-7.23708 6.03248,-11.03806 1.55603,-21.82942 -6.60023,-30.02756 l 12.6995,-4.74659 v -5.5377 c -9.99177,2.35999 -27.9173,13.96866 -35.71306,1.57 -2.06594,-3.28576 -2.26905,-7.38114 -3.17916,-11.06318 -9.98172,3.41077 -12.06136,18.01725 -6.58616,26.1032 2.53771,3.74775 6.69702,5.55266 9.76104,8.70514 M 54.777768,113.12709 c -2.325555,5.90684 2.59281,7.83023 5.556031,2.3733 l -5.556031,-2.3733 m 176.999272,4.74659 4.76231,2.37331 c 3.37889,-5.83849 -2.56062,-8.60033 -4.76231,-2.37331 m -201.604552,0 3.968593,19.77747 h -0.793719 l -9.524623,-14.23978 h -0.793714 l 3.968593,18.19528 c -5.467317,-3.15197 -8.580373,-7.06663 -8.73091,-13.44869 -7.631842,2.18157 -9.0997593,11.39207 -18.25552971,11.86649 l 2.38115611,15.03087 -2.38115611,-0.7911 2.38115611,6.32879 0.7937189,-15.82197 13.4932177,-11.07538 7.937186,16.61307 C 14.44264,147.0943 3.5306661,151.40672 5.5672093,163.7574 h 0.793719 C 6.4768537,153.39272 15.112782,152.21262 23.02902,156.63752 14.109646,160.35835 9.4317015,171.63523 0.01117829,171.66839 v 4.74659 H 5.567209 c 0.4541437,21.81355 28.628945,20.13137 34.129903,38.76383 l -5.556031,-2.3733 c 5.771634,19.35275 17.948723,-10.12429 27.780154,-3.16439 -11.230164,5.34074 -14.394199,17.40689 -27.780154,20.56856 C 35.73122,217.669 28.116947,207.72701 15.091833,215.55787 6.1368533,220.9417 0.0398233,230.93837 0.01117829,241.28507 7.0675125,241.13523 12.225025,237.95737 14.298114,231.00078 h 1.587438 c 3.576552,7.39612 15.152704,2.35384 22.224123,2.3733 -7.496436,9.6516 -25.241512,2.64496 -27.780154,16.61307 l 23.737455,-8.08863 6.733135,-7.7431 10.564542,-5.67443 13.731456,-13.30218 c -0.594452,-5.78447 -5.331198,-15.77813 -12.698887,-12.28462 -4.758575,2.25636 -7.039093,7.58803 -11.112671,10.70242 -0.424568,-19.86433 -27.131274,-20.54177 -34.1299046,-37.18163 8.3878956,-1.93502 16.2446946,-6.08601 19.8429676,-14.23978 3.612145,8.12202 0.547074,17.89336 4.220917,25.3121 4.1102,8.29989 12.4569,4.96976 14.828331,-2.37024 l 11.90578,4.74659 c 0.897584,-7.0788 0.902271,-14.94456 -4.909294,-20.15897 -3.099143,-2.78069 -11.358294,-5.22797 -12.052155,-9.83501 -0.346343,-2.29963 3.370167,-5.73164 4.26195,-7.97875 -11.515261,4.07406 -20.984067,0.80019 -16.668092,-12.65758 h 0.793715 l 3.174874,3.9555 c 3.784543,-9.19666 5.628936,-17.63247 -2.381152,-25.31516 m 36.51106,0 c 1.326841,16.16926 12.581747,15.86276 25.398998,14.23978 -1.349775,9.9906 -2.68232,18.44289 9.524624,21.35966 -4.04123,9.13125 -17.808664,11.28888 -26.986436,10.28428 3.965493,-4.61071 10.919506,-7.04073 16.668092,-8.70208 -1.597647,-4.15281 -2.546649,-9.33775 -6.429979,-12.07891 -3.541238,-2.4997 -6.697517,0.25943 -10.238725,-1.13964 -10.69417,-4.22512 -21.590665,-16.07396 -7.936574,-23.96309 m 179.380412,0.79115 c 0.74949,16.30815 13.50802,14.39186 25.399,13.44867 -2.64283,9.37348 -2.31783,18.57619 8.73091,21.35966 -3.241,10.77847 -17.33999,8.9737 -26.19271,11.07538 1.7877,-5.21646 10.75715,-8.25398 15.87438,-8.70208 -0.41158,-4.09224 -1.85033,-9.36197 -5.0324,-12.21319 -3.52661,-3.15992 -6.92809,-0.78857 -10.84198,-1.97348 -9.03645,-2.73579 -24.1524,-18.4455 -7.9372,-22.99496 m -104.77086,3.95549 c 2.9845,2.5008 5.45852,3.74554 4.76231,7.91098 -2.96856,-1.53724 -5.34102,-4.44465 -4.76231,-7.91098 m 20.63669,0 c 4.34373,10.64591 -6.76468,11.63208 -15.08066,9.49318 l 1.58745,-5.53768 13.49321,-3.9555 m 19.04925,1.58219 -3.17488,3.9555 v 0.79114 l 6.34975,3.16439 c 1.59501,-4.02927 0.34181,-5.64326 -3.17487,-7.91098 M 7.1546464,127.36687 c -11.1546104,-5.46126 -4.1972884,10.43953 0,0 m 110.3268936,-0.7911 c -4.74196,5.80719 2.09254,8.8137 3.9686,2.3733 l -3.9686,-2.3733 m 167.47465,2.3733 v 13.44867 h 0.79377 l -0.79377,-13.44867 m -89.69021,4.74659 7.93718,16.61307 c -10.43908,-2.92387 -18.94566,1.90032 -19.04925,13.44867 h 0.79377 c 0.72357,-9.65613 9.44625,-13.07229 17.4618,-7.11988 -6.89392,3.35975 -13.01967,7.63397 -15.87437,15.03087 L 175.423,170.87728 c -0.0626,-6.94801 -3.14665,-11.00418 -7.93717,-15.82196 l 6.34974,14.23978 c -15.98208,-2.88342 -16.13374,-19.9436 -3.96859,-27.68845 0.0248,8.86604 3.62304,14.24251 11.11206,18.98636 l 2.06635,-14.73422 10.63314,-12.16313 h 1.58745 m 31.74873,0.79104 3.17488,7.11989 -7.93718,0.79115 4.7623,-7.91099 m -175.411818,7.1199 -8.730905,0.79114 3.968593,-7.11988 4.762312,6.32879 m 42.06709,-4.7466 7.143468,11.07539 c -4.797792,-1.6317 -11.822049,-5.49926 -7.143468,-11.07544 m 186.523888,11.07538 c -5.74191,-1.67583 -10.13175,-4.54823 -8.73091,-11.07538 4.4817,2.10072 7.60202,6.28724 8.73091,11.07538 m -125.40755,-7.91098 -3.17487,5.53768 c 3.75379,1.46509 5.97427,0.84938 7.14346,-3.16439 l -3.96859,-2.37329 m -100.802271,5.53768 3.968593,2.3733 v 0.79115 c -4.770318,4.35574 0.771251,7.2512 4.762312,3.16439 v -0.79104 l -3.968594,-2.3734 3.174875,-5.53769 c -3.883469,-1.82119 -5.83701,-1.4943 -7.937186,2.37329 m 181.761581,-4.74659 c -1.626,2.80665 -2.27955,4.57957 0.79366,6.32879 -2.68909,6.2097 2.29863,10.14757 4.76231,3.1644 -2.40101,-2.35505 -1.63903,-4.06162 -0.79377,-7.11989 l -4.76231,-2.3733 m -64.29122,0.79115 c 5.88272,2.7902 9.34607,6.98336 10.31835,13.44867 -4.91427,-2.15438 -11.57786,-7.37916 -10.31835,-13.44867 m 110.3269,15.03087 v 0.79104 l 3.96859,0.79104 -3.96859,-1.58219 m -243.671525,2.37336 c 0.47516,9.12926 -0.705924,19.33316 7.143468,25.31516 -4.660306,4.28901 -10.207922,2.87135 -12.581911,-3.16501 -2.084136,-5.29933 -1.450072,-15.45577 -1.705025,-21.35905 l 7.143468,-0.79104 m 179.380425,0 c 0.1918,8.16999 -2.00542,20.09999 6.34974,24.52405 -2.73935,5.07167 -8.92541,4.09173 -11.54321,-0.82527 -3.16214,-5.93941 -1.34631,-16.15612 -2.74372,-22.90768 l 7.93719,-0.79104 m -190.492486,1.58208 c -3.24839,6.88454 -11.27728,9.46633 -18.2555303,11.07538 4.4086553,-6.22005 10.9439003,-9.38866 18.2555303,-11.07538 m 80.165586,1.58219 c -4.34921,5.65694 1.40933,9.33916 4.76231,3.1644 l -4.76231,-3.1644 m 177.79299,1.5822 0.79377,4.74659 -0.79377,-4.74659 m -180.96786,4.74659 c -3.39245,4.15727 -0.20257,9.71687 3.17487,4.74659 3.78646,1.62872 5.43251,1.89189 8.73091,-0.79115 v -0.79104 l -11.90578,-3.1644 m 179.38042,0 -3.17488,5.53769 3.17488,2.3733 h 0.79377 c 1.67732,-3.1532 1.83855,-5.33901 -0.79377,-7.91099 m -156.36257,4.74659 3.96858,-0.79115 -1.58743,3.95549 c 3.11154,-0.9794 6.05519,-1.46534 7.14346,-4.74658 -4.05547,-1.36432 -7.67195,-3.42451 -9.52461,1.58219 m -80.1656,5.53769 c -11.751199,-3.48879 -0.117304,-12.91738 0,0 m 179.38043,0 c -12.20321,-2.45596 -0.61753,-13.24408 0,0 M 50.015455,173.25058 c 4.064962,2.88004 6.396832,6.13244 7.143468,11.07539 -5.599668,-2.32365 -10.340137,-4.44438 -7.143468,-11.07539 m 186.523895,11.07539 c -6.25989,-2.59762 -8.72553,-4.15424 -8.73091,-11.07539 5.13974,1.75627 7.51138,6.00519 8.73091,11.07539 m -213.51033,-2.3733 c 8.7051,-6.96384 -7.783209,-7.57475 0,0 m 144.45681,-7.11989 c -1.28644,4.38028 1.57037,7.77172 0.72454,11.86648 -3.82675,18.52498 -13.82493,28.34698 -33.26698,22.15076 3.69675,-3.36084 7.73615,-6.23734 12.69949,-7.3726 5.63182,-1.28816 11.50591,2.11581 12.6995,-5.28498 -16.98277,-3.14246 -30.43957,9.07553 -35.71735,24.52406 h 0.79378 c 2.09566,-3.09572 4.73116,-8.87973 8.73397,-9.7581 3.2074,-0.70385 8.00392,2.51562 11.10899,3.39756 7.41546,2.10628 13.33779,0.12454 19.04925,-4.71484 2.2431,9.41235 11.42536,18.29079 20.60239,10.11518 10.98641,-9.78752 7.74646,-28.74128 -5.52173,-34.63924 -4.72034,9.76298 -1.55777,20.46273 10.31834,20.56857 -2.85864,9.61413 -20.10521,17.99449 -22.76981,3.16439 -0.76807,-4.27495 5.37985,-9.88986 6.48694,-14.23977 1.71487,-6.73805 -1.11922,-12.32899 -1.17894,-18.98637 h -0.79381 v 3.95549 h -0.79365 l -3.17487,-4.74659 m 30.95503,4.74659 c 3.94296,1.85296 5.66513,1.38177 7.93718,-2.3733 -3.85951,-2.29343 -6.35743,-2.10444 -7.93718,2.3733 m 57.14774,0.79115 c -1.99229,3.05446 -2.55328,5.05141 0.79366,7.11988 -3.46806,5.79778 1.40397,9.34903 4.76231,3.1644 l -3.96859,-2.3733 v -0.79114 c 3.29257,-3.00687 1.85478,-5.05086 -1.58743,-7.11989 m -181.761584,5.53769 c 2.400988,2.35505 1.63903,4.06162 0.793714,7.11989 l 4.762312,2.37329 c 1.625998,-2.80663 2.279553,-4.57956 -0.793715,-6.32878 l 2.381157,-6.32879 c -3.753791,-1.46507 -5.974298,-0.84936 -7.143468,3.16439 m 14.286936,-3.16439 7.937186,11.07538 c -5.675173,-0.58313 -12.033395,-5.0897 -7.937186,-11.07538 m 179.380418,0 7.14347,11.07538 c -5.4314,-0.9657 -11.99362,-5.43425 -7.14347,-11.07538 M 0.01117829,185.11706 c 0.0817626,6.88118 5.59409921,9.8892 9.52462421,15.03087 l -9.52462421,-3.95549 c 0.08098676,6.83475 3.69392451,9.3518 10.31834271,9.49319 L 0.01117829,223.08979 c 16.56572371,-6.13854 16.53972271,-31.58614 0,-37.97273 m 157.15630171,5.5377 c 3.95002,2.04365 5.65496,1.42032 7.93718,-2.3733 -3.97852,-2.14048 -6.15292,-2.06453 -7.93718,2.3733 m 14.28692,-3.9555 c 2.12932,6.75603 -0.69246,11.02538 -6.34974,15.03087 l 6.34974,-15.03087 m 8.73091,3.9555 8.73092,9.49317 c -4.70397,-0.24369 -12.82402,-3.8528 -8.73092,-9.49317 M 39.697112,202.52123 c 4.009851,1.88461 6.203407,1.41122 7.143468,-3.16439 -3.816168,-1.49255 -5.762532,-0.74982 -7.143468,3.16439 m 182.555298,2.37329 c 8.70511,-6.96384 -7.78323,-7.57474 0,0 m 61.91006,-3.95548 0.79376,12.65757 H 285.75 l -1.58753,-12.65757 m -266.68948,3.16439 -2.381157,4.74659 c 5.857814,3.36777 8.628795,-2.55219 2.381157,-4.74659 m 181.76157,7.11988 2.38116,-4.74659 c -5.85781,-3.36777 -8.6288,2.55219 -2.38116,4.74659 m -104.770859,0 v 0.79115 l 3.968593,2.37329 -3.174874,5.53769 c 3.825239,2.19433 5.85233,1.48867 7.93719,-2.3733 l -3.968597,-1.58223 3.174867,-5.53769 c -3.459722,-2.06022 -5.080816,-2.12647 -7.937179,0.79104 m 179.380409,1.5822 5.55604,9.49319 2.38115,-4.7466 -3.17486,-1.58219 2.38116,-6.32879 c -3.82669,-1.26994 -5.75522,-0.76198 -7.14349,3.16439 m -155.56885,3.16445 c 3.75378,1.46506 5.97427,0.84938 7.14347,-3.1644 -3.75382,-1.46508 -5.97429,-0.84927 -7.14347,3.1644 m -85.721616,9.49318 c -6.257063,1.9735 -12.252724,8.01881 -16.668092,0 h -1.587438 c -1.741853,6.28089 -5.462911,9.32175 -11.9057796,10.28428 2.2152032,-7.50317 9.0017036,-14.57828 16.6680916,-16.66985 5.855401,-1.59748 12.17058,-0.0893 13.493218,6.38557 m 179.380416,0 c -6.12004,1.79429 -12.64162,8.3265 -16.66808,0 h -1.58745 c -2.52165,6.37239 -5.78632,9.35112 -12.69949,10.28428 4.06069,-9.37814 24.80031,-28.16753 30.95502,-10.28428 M 109.54435,220.7165 c -7.56261,6.96942 -16.780817,0.81892 -21.430398,11.86647 5.897064,-3.8185 22.173058,-2.4202 21.430398,-11.86647 m 175.41184,3.16439 c -7.66408,2.25793 -14.54853,-1.07273 -17.46182,8.70208 h 0.79376 c 3.5699,-4.14988 18.99386,-2.70945 16.66806,-8.70208 m -125.40755,7.91099 c -5.24201,10.06395 10.32821,4.12514 0,0 m 125.40755,1.5822 c -2.00576,6.30647 -1.78621,11.86003 0,18.19526 h 0.79377 l -0.79377,-18.19526 m -168.26837,1.5822 c -2.84452,3.69164 -2.40833,6.14235 2.38116,7.11988 1.40934,-3.55984 0.87239,-5.08507 -2.38116,-7.11988 m -68.259802,5.53768 c 5.631913,3.13091 9.333891,6.92653 10.318342,13.44867 -5.032222,-1.70508 -11.531299,-7.60357 -10.318342,-13.44867 m 179.380422,0 c 5.26725,3.33687 9.18595,6.95579 9.52462,13.44867 -4.62836,-2.19649 -11.55215,-7.60504 -9.52462,-13.44867 m -82.54674,2.37329 -0.79367,0.79115 0.79367,-0.79115 M 0.01117829,247.61384 3.186053,261.06253 H 0.01117829 c 0.0377025,3.15304 0.04766716,5.07584 3.17487471,6.32879 2.9148722,-6.84033 3.137444,-14.83626 -3.17487471,-19.77748 M 103.19461,249.98715 c -1.07747,8.68721 0.69452,18.70705 11.11206,19.77746 -0.20113,-6.12295 -5.0144,-6.58173 -8.21279,-11.08759 -1.92327,-2.70946 -1.67149,-5.8016 -2.89927,-8.68987 m 79.37186,11.07538 c -6.36087,-0.14908 -12.87136,-3.87718 -11.11207,-11.07538 5.5325,2.02248 9.33556,5.42671 11.11207,11.07538 m 99.21483,-10.28429 3.17489,15.03088 h 0.79377 l -3.9686,-15.03088 m -147.63167,7.11989 v 2.37329 l -9.52463,5.5377 h -0.79376 c -3.45256,-3.44117 -9.60168,-7.5038 -9.52463,-12.65758 l 19.84297,4.74659 m -36.511064,5.53769 c -5.268693,4.48448 -10.096103,2.35292 -15.862123,4.75391 -5.453025,2.27066 -8.862209,14.14043 -1.564777,16.26268 12.87419,3.74416 33.211514,-15.70111 42.825904,-3.61242 l -18.25553,3.1644 v 0.79115 H 124.625 c 0,-3.21967 0.6334,-7.29645 -1.04604,-10.19822 -2.8914,-4.99586 -9.43383,-3.70822 -14.03462,-2.54176 -10.757174,2.7273 -20.389443,9.74641 -31.748742,5.62009 5.122178,-4.7345 23.887582,-3.88246 19.842967,-14.23978 m 178.586705,0 c -5.02271,5.7317 -12.88652,1.65746 -18.03445,6.64071 -3.2599,3.15561 -4.38333,12.0454 0.61914,14.13174 8.00435,3.33827 26.82829,-1.88953 26.9399,-11.27927 -9.18433,3.55048 -18.74273,8.31784 -28.57387,4.7466 4.64723,-5.86137 23.69999,-3.08494 19.04925,-14.23978 m -128.58243,19.77747 c -7.94041,-1.88159 -12.53432,-9.67573 -12.6995,-17.40417 8.11638,2.38044 12.50531,9.13334 12.6995,17.40417 m -88.896493,1.5822 7.937188,-3.9555 3.174873,3.9555 -2.381155,-10.28429 c -4.761846,1.64859 -7.04283,5.75022 -8.730906,10.28429 m 179.380423,0 7.93718,-3.9555 v 3.9555 h 3.17488 l -2.38115,-10.28429 c -4.91741,1.67099 -7.33137,5.45322 -8.73091,10.28429 M 60.333799,278.46669 c -9.805151,-5.83945 -5.224191,9.62064 0,0 m 171.443241,2.3733 4.76231,2.37329 2.38115,-5.53768 c -3.81616,-1.49256 -5.76252,-0.74982 -7.14346,3.16439 m -201.604552,0 -0.793715,3.95549 h 3.968589 l -3.174874,-3.95549 m 179.380422,0 -0.79377,3.95549 h 3.17487 l -2.38115,-3.95549 m 73.81584,3.1644 v 0.79115 h 2.38115 z"
     id="path1" /></svg>
